<?xml version="1.0" encoding="UTF-8"?>
<svg id="_레이어_1" data-name="레이어 1" xmlns="http://www.w3.org/2000/svg" viewBox="0 0 48 48">
  <defs>
    <style>
      .cls-1 {
        fill: #fff;
      }

      .cls-2 {
        fill: #e60f33;
      }
    </style>
  </defs>
  <circle class="cls-2" cx="24" cy="24" r="24"/>
  <g>
    <path class="cls-1" d="M35.39,28.78c0,.07.05.12.12.12h6c.07,0,.12-.05.12-.12v-15.16c0-.07-.05-.12-.12-.12h-2.83c-.07,0-.12.05-.12.12v12.57s-.04.09-.09.09h-2.96c-.07,0-.12.05-.12.12v2.39Z"/>
    <path class="cls-1" d="M26.02,34.31h15.82c.07,0,.12-.05.12-.12v-2.49c0-.07-.05-.12-.12-.12h-13.08l-2.74,2.73Z"/>
    <path class="cls-1" d="M31.19,12.47c-2.83,0-5.17,2.05-5.17,4.83s2.34,4.83,5.17,4.83,5.17-2.05,5.17-4.83-2.34-4.83-5.17-4.83M31.19,19.49c-1.19,0-2.19-.93-2.19-2.19s1-2.19,2.19-2.19,2.19.93,2.19,2.19-1,2.19-2.19,2.19"/>
    <path class="cls-1" d="M25.29,25.75c0,.07.05.12.12.12h4.78c.08,0,.12.09.06.15l-4.06,3.98c-.11.11-.17.26-.17.41v3.9l10.97-10.92c.13-.13.04-.34-.14-.34h-11.43c-.07,0-.12.05-.12.12v2.58Z"/>
    <path class="cls-1" d="M15.05,22.71c-3.85,0-6.83,2.88-6.83,6.41s2.97,6.41,6.83,6.41,6.83-2.88,6.83-6.41-2.97-6.41-6.83-6.41M15.05,32.75c-2.19,0-3.8-1.61-3.8-3.63s1.61-3.63,3.8-3.63,3.8,1.61,3.8,3.63-1.61,3.63-3.8,3.63"/>
    <path class="cls-1" d="M6.34,26.96l11.2-12.96c.11-.12.02-.31-.14-.31H6.4c-.07,0-.12.05-.12.12v2.58c0,.07.05.12.12.12h4.88c.09,0,.14.1.08.17l-5.19,6.01c-.09.1-.14.24-.14.38v3.78c0,.16.2.23.3.11"/>
    <path class="cls-1" d="M18.93,23.15h2.83c.07,0,.12-.05.12-.12v-6.42s.04-.09.09-.09h1.99c.07,0,.12-.05.12-.12v-2.58c0-.07-.05-.12-.12-.12h-5.02c-.07,0-.12.05-.12.12v9.22c0,.07.05.12.12.12"/>
  </g>
</svg>