<?xml version="1.0" encoding="UTF-8"?>
<svg id="_레이어_1" data-name="레이어 1" xmlns="http://www.w3.org/2000/svg" viewBox="0 0 48 48">
  <defs>
    <style>
      .cls-1 {
        fill: #0068b6;
      }

      .cls-2 {
        fill: #fff;
      }
    </style>
  </defs>
  <circle class="cls-1" cx="24" cy="24" r="24"/>
  <g>
    <path class="cls-2" d="M26.77,12.54l8.83,5.75s4.5,2.42.5,4.59c0,0-1.83,1.54-7.75,1.04,0,0-3-.51-4.58-1.6,0,0-2.08-1.11-.42-2.11,0,0,2.5-.83-1.92-1.25,0,0-4.58-.5-6.5-.17,0,0-3.25.17-4.75.67l11.09-7.23s2.83-1.53,5.5.31Z"/>
    <path class="cls-2" d="M6.18,21.71s2.33-1.75,7.58-1.83c0,0,3.25-.17,5.08.41,0,0-3.08,3.67,2.09,6.5,0,0,3.17,2.25,9.75,2.67,0,0,4.09.42,5.92.16l-8.83,5.59s-3.36,3.13-8.5-.92l-13.25-8.67s-3.58-1.58.17-3.92Z"/>
    <path class="cls-2" d="M22.35,24.21s6.17,3.25,14.09.83c0,0,3.17-.5,5.08-3,0,0,3.67,1.67,1.08,3.5,0,0-.17,1-6.5,1.83,0,0-4.42.25-6.42-.34,0,0-5.75-1-7.33-2.83Z"/>
  </g>
</svg>