<?xml version="1.0" encoding="UTF-8"?>
<svg id="_레이어_1" data-name="레이어 1" xmlns="http://www.w3.org/2000/svg" viewBox="0 0 48 48">
  <defs>
    <style>
      .cls-1 {
        fill: #f6ab00;
      }

      .cls-2 {
        fill: #fff;
      }
    </style>
  </defs>
  <circle class="cls-1" cx="24" cy="24" r="24"/>
  <g>
    <path class="cls-2" d="M24.4,6.1c-6.29-.12-11.88,3.02-15.17,7.86.06.07.11.14.16.2.04.04.07.08.1.12.02,0,.03,0,.05,0,.23.04.58.11.89.38.19.17.31.36.41.51.04.07.1.16.13.18.05.05.13.11.21.17.13.1.29.22.44.37.13.13.24.26.35.38.08.09.15.17.22.25.06.06.14.13.22.21.12.11.26.24.4.39.17.19.27.39.35.56.03.06.08.15.1.18h0c.12.14.24.29.35.43l.17.22s.11.1.17.16c.13.11.3.25.44.45.11.14.2.28.29.42.07.1.13.19.19.27.14.19.23.39.3.55.04.09.08.18.11.22.03.04.1.11.16.18.12.12.26.26.38.45.13.2.21.4.27.56.02.06.05.13.07.18.02.02.05.04.08.05.16.11.41.28.59.56.1.16.16.32.22.46l.34.23c.56.38.79.18.52-.44l-3.15-7.18c-.27-.62-.16-.68.25-.14l4.7,6.21c.41.54.69.43.63-.24l-.66-7.8c-.06-.67.07-.7.28-.06l2.27,7.36c.22.64.5.62.63-.04l1.27-7.59c.13-.66.26-.65.29.02l.32,7.76c.03.67.32.75.66.16l3.88-6.72c.34-.58.46-.53.26.11l-2.2,7.41c-.19.64.07.81.58.37l5.82-5.05c.51-.44.61-.35.21.2l-3.35,4.7c.17,0,.34-.01.47-.08.27-.15.43-.52.71-.66.28-.13.65-.09.93-.21.28-.13.48-.46.77-.58.29-.12.59-.2.87-.3.32-.12.61-.3.92-.4.31-.1.65-.15.95-.24.31-.09.68.04.98-.05.33-.09.58-.44.89-.52.32-.08.66-.03.96-.1.33-.08.66-.07.97-.13.33-.07.63-.25.93-.3.06-.01.12-.02.18-.02-2.22-7.18-8.83-12.46-16.76-12.61Z"/>
    <path class="cls-2" d="M21.68,40.77s0-.04.01-.05c-.01-.02-.03-.05-.04-.07-.08-.15-.2-.36-.26-.62-.02-.1-.05-.22-.09-.34-.04-.13-.09-.29-.13-.45-.05-.21-.05-.41-.06-.56,0-.1,0-.2-.02-.25-.04-.17-.06-.33-.09-.47-.02-.12-.03-.23-.06-.32-.02-.08-.06-.18-.1-.28-.05-.14-.12-.29-.16-.47l-.05-.17-.16-.59c-.03-.09-.07-.2-.11-.31-.05-.13-.1-.27-.15-.43-.08-.27-.07-.53-.06-.71,0-.05,0-.12,0-.15-.03-.11-.08-.22-.12-.34-.05-.13-.1-.25-.14-.39-.01-.03-.06-.09-.09-.14-.1-.14-.25-.34-.33-.59-.02-.07-.07-.17-.12-.27-.07-.13-.15-.29-.21-.46-.05-.14-.1-.27-.16-.42l-.12-.32c-.11-.31-.09-.6-.08-.79,0-.03,0-.06,0-.08-.03-.07-.07-.14-.12-.22-.07-.13-.16-.28-.23-.46-.02-.05-.08-.13-.13-.21-.09-.13-.2-.3-.28-.5-.07-.17-.12-.33-.16-.47-.03-.11-.07-.22-.1-.29-.06-.13-.11-.26-.16-.38-.05-.12-.1-.24-.15-.35l-.15-.33c-.07-.15-.13-.29-.19-.42-.02-.05-.09-.13-.15-.21-.1-.12-.21-.28-.31-.47-.11-.21-.16-.41-.2-.58-.01-.05-.03-.12-.04-.16-.03-.02-.06-.05-.08-.07-.15-.12-.36-.28-.5-.55-.14-.26-.19-.51-.22-.7,0-.05-.02-.11-.03-.14-.1-.17-.16-.33-.21-.47-.03-.07-.05-.14-.08-.19-.02-.02-.06-.04-.08-.06-.17-.11-.4-.26-.56-.53-.12-.19-.2-.38-.26-.54-.03-.08-.07-.17-.09-.21-.03-.05-.1-.12-.18-.2-.11-.11-.24-.24-.35-.41-.13-.19-.21-.37-.28-.52-.04-.08-.08-.18-.1-.21-.09-.13-.17-.25-.25-.37-.07-.11-.14-.22-.2-.3-.03-.04-.11-.11-.19-.17-.12-.1-.27-.23-.4-.4l-.18-.23c-.11-.14-.21-.27-.31-.39-.16-.19-.26-.39-.33-.55-.03-.06-.07-.13-.09-.16-.07-.08-.16-.16-.25-.24-.1-.09-.22-.2-.33-.32-.1-.1-.18-.2-.27-.3-.09-.11-.18-.21-.27-.3-.06-.06-.16-.13-.25-.21-.11-.09-.24-.18-.37-.3-.18-.17-.3-.36-.39-.51-.02-.03-.04-.06-.06-.09-.02,0-.04,0-.05-.01-.21-.04-.54-.1-.81-.33-.05-.04-.1-.09-.14-.13-1.29,2.41-2.05,5.16-2.11,8.08-.18,9.2,6.61,16.91,15.52,18.09-.02-.06-.03-.12-.05-.19-.06-.32.01-.6.06-.79Z"/>
    <path class="cls-2" d="M20.11,29.35c.03.07.08.16.13.26.08.14.17.31.25.5.12.31.1.61.08.8,0,.03,0,.07,0,.1l.09.24c.06.15.12.3.18.47.02.07.07.16.12.25.07.15.15.31.22.5,0-.01,0-.02,0-.02.01.02.06.09.09.14.11.15.26.35.34.62.03.1.07.2.11.32.06.15.12.31.17.48.08.28.07.54.07.73,0,.05,0,.12,0,.16.03.08.06.18.1.28.05.14.11.3.16.47l.16.61.05.18c.02.07.05.16.1.26.06.15.13.32.18.51.04.18.07.35.09.5.02.12.03.23.05.32.05.22.06.42.06.58,0,.1,0,.2.02.25.02.09.05.2.09.31.04.14.09.3.13.47.01.03.04.08.07.13.09.16.21.37.27.64.07.32,0,.61-.05.79,0,.03-.01.06-.02.09.02.06.04.13.06.2.04.12.08.26.12.41.05,0,.08,0,.13,0,5.29.1,10.09-2.1,13.44-5.69-6.21-4.78-13.84-6.45-17.08-6.97.02.04.04.08.05.11Z"/>
    <path class="cls-2" d="M41.85,24.35c.03-1.36-.11-2.68-.37-3.96-.11.02-.22.04-.33.06-.31.06-.58.26-.87.31-.3.06-.59.15-.87.22-.32.07-.64.09-.94.16-.31.08-.64.05-.93.14-.3.09-.55.32-.83.41-.31.1-.64.12-.93.23-.3.11-.64.09-.93.2-.29.11-.52.34-.79.46-.3.13-.63.16-.9.29-.3.14-.53.42-.8.56-.28.15-.57.27-.82.42-.28.16-.59.27-.84.43-.28.18-.47.45-.71.62-.28.2-.48.45-.71.63-.27.22-.59.32-.8.51-.21.19-.44.32-.62.46l-.4.64c-.08.3-.08.53-.21.34l-.86,1.39c3.63,1.11,7.97,2.94,11.83,5.95,2.22-2.92,3.57-6.53,3.64-10.48Z"/>
  </g>
</svg>