<?xml version="1.0" encoding="UTF-8"?>
<svg id="_레이어_1" data-name="레이어 1" xmlns="http://www.w3.org/2000/svg" viewBox="0 0 48 48">
  <defs>
    <style>
      .cls-1 {
        fill: #fff;
      }

      .cls-2 {
        fill: #e7380d;
      }
    </style>
  </defs>
  <circle class="cls-2" cx="24" cy="24" r="24"/>
  <g>
    <path class="cls-1" d="M24.45,25.04c8.06-1.57,12.57,2.91,14.92,6.88,1.23-2.37,1.93-5.06,1.93-7.92,0-1.15-.11-2.27-.33-3.35-17.87-3.08-23.51,10.47-25.28,18.47,2.47,1.35,5.3,2.11,8.3,2.11,4.8,0,9.14-1.95,12.28-5.09-3.52-10.87-11.83-11.1-11.83-11.1h0Z"/>
    <path class="cls-1" d="M35.2,10.87c-3.11,5.4-7.48,7.93-7.48,7.93,2.43-2.91,3.63-7.04,4.22-10.11-2.38-1.23-5.08-1.92-7.95-1.92-6.1,0-11.46,3.14-14.54,7.89,2.51,2.13,8.17,5.66,17.38,4.73,0,0-9.88,1.73-19.28-.73-.55,1.68-.85,3.48-.85,5.34,0,4.51,1.74,8.61,4.58,11.68,5-16.63,24.5-17.63,28.96-17.64-1.04-2.81-2.79-5.27-5.03-7.17ZM23.44,18.42c-1.6,0-2.89-1.28-2.89-2.85s1.3-2.85,2.89-2.85,2.89,1.28,2.89,2.85-1.3,2.85-2.89,2.85Z"/>
  </g>
</svg>