<?xml version="1.0" encoding="UTF-8"?>
<svg id="_레이어_1" data-name="레이어 1" xmlns="http://www.w3.org/2000/svg" viewBox="0 0 48 48">
  <defs>
    <style>
      .cls-1 {
        fill: #008837;
      }

      .cls-2 {
        fill: #fff;
      }
    </style>
  </defs>
  <circle class="cls-1" cx="24" cy="24" r="24"/>
  <g>
    <path class="cls-2" d="M6.1,30.04l11.45-18.04,1.61,2.77-9.17,14.34s-3.29.64-3.89.94Z"/>
    <path class="cls-2" d="M23.5,9.72l-12.2,19.17s2.1-.19,2.47-.15l10.86-16.88-1.12-2.13Z"/>
    <path class="cls-2" d="M28.12,8.59l-12.84,20.4s10.14-.45,15.35.45c0,0,10.59,1.5,7.79,4.75,0,0-1.2,1.31-5.39,2.25,0,0,7.64-.37,8.72-4,0,0,.45-1.12-.19-2.1l-13.44-21.75Z"/>
    <path class="cls-2" d="M9.47,32.03h.92c.41,0,1.06.11,1.06,1.54,0,.8-.26,1.62-1.04,1.62h-.93v-3.17ZM8.53,36.03h1.99c1.52,0,1.91-1.5,1.91-2.53,0-.92-.32-2.3-1.87-2.3h-2.03v4.84Z"/>
    <path class="cls-2" d="M14.71,32.28h.01l.57,1.91h-1.17l.59-1.91ZM13.87,35.03h1.7l.29,1h1.04l-1.62-4.84h-1.11l-1.64,4.84h1.01l.32-1Z"/>
    <path class="cls-2" d="M20.9,32.05h-2.44v1.02h2.24v.86h-2.24v1.25h2.55v.86h-3.49v-4.84h3.38v.86Z"/>
    <path class="cls-2" d="M23.94,33.42h1.92v2.61h-.64l-.1-.61c-.24.3-.6.73-1.43.73-1.11,0-2.11-.84-2.11-2.53,0-1.32.7-2.57,2.25-2.56,1.41,0,1.97.96,2.02,1.63h-.96c0-.19-.33-.8-1-.8s-1.32.5-1.32,1.74c0,1.32.68,1.66,1.34,1.66.21,0,.92-.09,1.11-1.06h-1.07v-.82Z"/>
    <path class="cls-2" d="M30.45,34.34c0,1.27-.73,1.82-1.89,1.82-.42,0-1.05-.11-1.46-.59-.25-.3-.35-.69-.36-1.17v-3.21h.98v3.14c0,.67.37.97.82.97.66,0,.93-.34.93-.92v-3.19h.98v3.15Z"/>
  </g>
</svg>