<?xml version="1.0" encoding="UTF-8"?>
<svg id="_레이어_1" data-name="레이어 1" xmlns="http://www.w3.org/2000/svg" viewBox="0 0 48 48">
  <defs>
    <style>
      .cls-1 {
        fill: #1a2b7c;
      }

      .cls-2 {
        fill: #fff;
      }
    </style>
  </defs>
  <circle class="cls-1" cx="24" cy="24" r="24"/>
  <g>
    <path class="cls-2" d="M30.08,16.46c.85-2.22-.19-6.89-4.16-8.06l-1.22,15.46,14.33-5.94c-2.34-3.4-7.1-2.96-8.95-1.46"/>
    <path class="cls-2" d="M40.22,21.59l-15.08,3.62,10.08,11.79c2.51-3.28.62-7.67-1.38-8.96,2.38.12,6.49-2.31,6.38-6.44"/>
    <path class="cls-2" d="M24,26.03l-8.1,13.23c3.89,1.38,7.48-1.78,8.1-4.08.62,2.3,4.21,5.46,8.1,4.08l-8.1-13.23Z"/>
    <path class="cls-2" d="M22.86,25.21l-10.08,11.79c-2.51-3.28-.62-7.67,1.38-8.96-2.38.12-6.49-2.31-6.38-6.44l15.08,3.62Z"/>
    <path class="cls-2" d="M23.3,23.87l-14.33-5.94c2.34-3.4,7.1-2.96,8.95-1.46-.85-2.22.19-6.89,4.16-8.06l1.22,15.46Z"/>
  </g>
</svg>