<?xml version="1.0" encoding="UTF-8"?>
<svg id="_레이어_1" data-name="레이어 1" xmlns="http://www.w3.org/2000/svg" viewBox="0 0 48 48">
  <defs>
    <style>
      .cls-1 {
        fill: #fff;
      }

      .cls-2 {
        fill: #0082cc;
      }
    </style>
  </defs>
  <circle class="cls-2" cx="24" cy="24" r="24"/>
  <g>
    <path class="cls-1" d="M26.66,11.85c.07.1.15.19.16.3.1.3.37.48.41.78.01.1.14.14.21.19.07.1.02.2.17.34.07.04.02.15.03.25.07.04.14.09.21.13.62.97.68,2.1-.04,3.14-.12.11-.22.28-.27.44-.06.06-.18.12-.24.18.01.1.08.15.15.24-.31.08-.35.34-.58.52-.06,0-.19.02-.25.02-.17.17-.36.24-.54.36-.06.06-.04.21-.03.26-.29.23-.73.38-1.18.37-.06,0-.11.17-.17.17-.32.03-.7.01-1.02.04-.13-.04-.21-.13-.34-.17-.13.01-.25.02-.39-.01-.21-.14-.47-.16-.67-.25-.13-.04-.38.09-.51,0-.43-.37-.85-.74-1.09-1.13-.16-.24-.42-.32-.51-.57-.01-.1.04-.26-.1-.3-.27-.08-.15-.24-.17-.4-.08-.15-.09-.25-.24-.39-.08-.15.02-.36-.06-.56,0-.05.05-.11.05-.16-.1-.3.06-.62.03-.88-.02-.15.02-.36.07-.52.16-.32.31-.7.59-1.03,0-.05-.02-.15-.02-.2.06-.06.12-.06.18-.12.1-.27.2-.48.37-.7.22-.28.58-.52.87-.8.17-.17.42-.3.58-.57.06-.06.26.03.32-.03.17-.17.43-.14.61-.26.18-.12.14.14.33.07.13-.01.18-.07.31-.13.18-.07.39.07.59.1.19-.02.39.02.59.15.28.18.91.12,1.01.47.16.24.43.42.59.66Z"/>
    <path class="cls-1" d="M37.41,15.88c0-.16,0-.26-.06-.42-.02-.16.11-.34.05-.55-.04-.06-.12-.13-.11-.18.11-.33.12-.64.09-1.01-.03-.11-.06-.17-.1-.23,0-.05.03-.15.05-.25,0-.31-.09-.53-.18-.81-.03-.11-.11-.18-.13-.33-.04-.06-.12-.13-.11-.18.08-.44-.13-.8-.2-1.22-.1-.48-.56-.79-.7-1.28,0-.05.16-.03.2-.02.36.33.76.73.85,1.21.06.17.04.32.11.43.3.37.36.85.41,1.32,0,.05.09.02.13.08,0,.05-.03.15,0,.21.23.26.09.53.14.8.03.11.06.17.1.23,0,.05-.12.18-.13.23.19.25.27.57.22.87.22.1.12.38.17.6.03.06.08.07.13.08.06-.09.12-.18.14-.28.03-.4.05-.76-.03-1.13-.06-.17-.08-.33.04-.45-.09-.02-.12-.13-.15-.19-.16-.65-.23-1.38-.42-2.04,0,0,.05-.04.06-.09-.07-.58-.51-1.13-.72-1.72-.03-.11-.2-.23-.28-.34,0,0,0-.05.01-.1.23.03.4.25.52.42.24.34.51.71.58,1.08.13.33.31.69.39,1.02.05.22.21.36.31.54.06.17.03.32.04.47.06.38.18.74.25,1.12.09.27.13.59.04.83-.12.43.16.91.28,1.29.06.17-.02.36-.09.49,0,.05.07.12.06.17-.08.19-.02.35-.05.55-.05.04.06.17,0,.25-.05.04-.1.03-.15.07-.07.14,0,.31-.04.45-.14.28-.07.65-.34.85-.1.03-.11.08-.16.12.04,0,.08.07.12.13-.05.04-.1.03-.15.07-.02.1.17.22.21.28-.07.4-.37.74-.36,1.2-.02.1-.05.25-.06.35-.09.24-.26.4-.35.64-.02.1-.21.11-.22.21-.12.13-.11.33-.19.52-.06.09-.2.06-.31.14-.12.18-.11.34-.19.52-.14.23-.3.47-.43.7-.15.33-.41.64-.69.89-.05,0-.14.02-.2.06-.14.28-.31.48-.61.62-.05,0-.11.21-.17.25-.21.16-.33.33-.59.48-.1.03-.15.07-.26-.11-.33.59-.78,1.06-1.26,1.46-.25.15-.51.13-.68.3-.55.54-1.43,1.12-1.53,1.2-.04-.01-.21.24-.21.24-.18.02-.08.03-.24,0,0,0,0,.28-.23.32-.47.09-.6.65-.64.87-.02.11-.1.04-.15.08-.05.05-.02.11-.07.16-.21.13-.38.38-.56.57-.05.05-.09-.02-.14.02-.05.04-.31.36-.4.63-.22.48-.45.91-.75,1.25-.07.08.17.4.15.51-.07.15-.21.18-.27.33-.06.38-.08.8-.14,1.2-.11.39.03.67.08,1.01.06.29-.02.67,0,.95.02.23.18.48.15.7,0,.34-.07.3,0,.58,0,.17-.06.33-.03.45-.01.23-.05.36-.06.59-.05.05-.15.16-.15.22-.03.56-.4,1.05-.79,1.42-.24.15-.44.39-.72.37-.14,0-.59.28-.74.32-.4.11-.73.12-1.11.06-.43-.12-.76-.22-1.06-.66-.17-.19-.48-.12-.59-.42-.03-.12-.28-.18-.32-.24-.22-.2-.34-.44-.51-.69-.11-.3-.03-.5-.17-.79-.14-.18-.2-.3-.34-.48-.19-.24.04-.57-.09-.81-.1-.06-.19-.18-.23-.3-.09-.23-.07-.56-.21-.81-.07-.29-.03-1.35.03-1.63.01-.06-.15-.14-.14-.2.02-.41.16-.81.13-1.23.04-.23.02-.41.23-.6,0,0-.1-.08-.09-.14.12-.33.12-.58.18-.93.01-.06.13-.09.14-.15-.07-.25-.07-.76-.03-.99.02-.11.32-.28.38-.39,0-.06-.04-.2.07-.4.03-.05.11-.03.16-.08,0-.06-.03-.13-.02-.18.03-.17.32-.29.34-.41.11-.39.31-.55.51-.86.07-.14.1-.29.22-.41.05-.04.08,0,.09-.05,0-.05-.02-.16,0-.21.11-.13.27-.25.3-.39.08-.19.15-.33.26-.45.21-.16.42-.32.55-.54.11-.13.25-.1.36-.23.17-.17.21-.41.33-.59.29-.35.61-.58.92-.82.26-.2.6-.28.85-.42.26-.2.42-.57.68-.72.16-.12.34-.13.5-.25.16-.12.29-.35.53-.39.52-.14.15,0,.64-.19.31-.19.18-.24.49-.43.51-.3.77-.49.82-.48.05-.04.11-.08.12-.18.12-.18.77-.64.87-.67.1-.03.21.1.32-.03.06-.09-.06-.17,0-.26.17-.17.33-.39.49-.51.05-.04.18.04.28,0,.05-.04.07-.14.13-.18.06-.09-.05-.22,0-.31.07-.14.14-.28.24-.3.15-.07.36-.18.33-.29.04-.2.12-.39.32-.49,0-.05.02-.1.03-.15.12-.13.22-.21.34-.33.13-.18.07-.39.14-.53.23-.26.46-.46.52-.81-.02-.16-.12-.38-.05-.52.06-.09.26-.15.28-.25.04-.2-.06-.42-.07-.63.03-.15.19-.27.17-.42-.02-.41,0-.82-.05-1.24.14-.02.16-.12.18-.22-.04-.32-.22-.61-.3-.94,0-.21.16-.37.15-.58-.02-.16-.17-.35-.33-.48-.15-.19-.05-.47-.11-.69-.04-.27-.24-.46-.28-.78-.02-.16-.21-.15-.27-.32-.05-.22-.11-.43-.11-.69-.03-.11-.17-.09-.25-.16-.18-.3-.12-.9-.51-1.03.04-.2-.14-.24-.21-.4.24,0,.45.1.58.38.04.06.17.09.22.1.12.13.11.43.23.51.16.14.4.09.47.26.09.27.3.42.4.65,0,.05.02.16.05.22.16.14.18.3.3.42.27.32.54.63.41,1.07-.08.19.16.14.24.26.18.3.11.69.34.95-.04.5.2.97.35,1.41-.26.4-.12,1.11.09,1.52,0,0,.14-.02.15-.07.04-.25.49-.33.42-.45-.09-.28-.23-.85-.23-1.11.03-.4.04-.76-.02-1.18-.04-.06-.07-.12-.11-.18-.05-.22-.11-.43-.06-.68-.03-.11-.11-.18-.13-.29,0-.05.03-.15.04-.2.1-.03.22.05.31.07.08.07,0,.21.04.27.14.24.36.34.4.6,0,.05-.03.15-.03.2.04.32.22.56.27.83.02.16-.12.38-.05.55.21.4.21.87.18,1.32-.04.2.21.35.14.49-.07.14.02.16-.05.3,0,.05-.11.08-.12.13.13.29-.07.72-.11.97,0,.05.15.1.19-.08.02-.11.21-.11.3-.14.11-.08.19-.27.18-.47ZM38.38,16.87c0-.25.13-.43.08-.7-.09-.28-.29,0-.44.02.08.32-.05.55-.15.84-.06.09-.11.34.04.32.22.05.46-.17.47-.47ZM38,18.22c.06-.08.03-.24-.05-.31-.13-.08-.29.04-.36.18-.07.14-.02.36.17.34.04.01.17-.13.24-.22Z"/>
    <path class="cls-1" d="M35.35,9.81c.24.18.33.48.52.73l-.02.1c-.33.29-.62-.19-.71-.46-.13-.29-.27-.57-.51-.78,0-.05.02-.1.03-.15-.12-.13-.27-.32-.12-.38.06-.09.17.09.3.17.19.25.23.56.51.78Z"/>
    <path class="cls-1" d="M36.71,8.54s-.08.13-.09.18c-.16-.14-.31-.29-.45-.53-.04-.01-.13-.04-.17-.1-.04-.01-.03-.06-.02-.11.14-.01.26.12.38.2.04.01.1-.03.14-.01.12.08.19.21.2.36Z"/>
    <path class="cls-1" d="M16.43,17.62s.11.09.14.14c.07.05.15.05.23.02.07,0,.14.2.22.2.11.05.18.24.28.33.07.05.15.12.22.16.1.13.17.26.28.35.07.09.18.06.26.06.15.05.21.26.31.4.04,0,.1.13.1.17.07.05.14.13.25.18.03.04.03.13.06.17.27.44.63.71.86,1.19,0,0,.03.09.03.13.28.27.4.65.64.96.07.13.13.34.19.51.07.09.14.14.21.22.1.17.2.39.22.6,0,.08-.06.33-.2.19-.18-.18-.16-.43-.33-.57,0-.04-.04-.15-.08-.19-.07-.09-.2-.08-.23-.21,0-.12-.13-.22-.2-.31-.18-.26-.44-.35-.65-.61-.04,0-.08,0-.12.04-.04.08-.16.2-.05.33.15.09.22.26.4.35.11.09.14.34.2.55.07.09.14.17.25.22.11.09.07.22.17.35,0,.04-.04.08-.05.12.07.13.22.1.32.23.08-.08.19-.02.26.1-.12.12-.09.2-.14.32-.13.2.16.38.34.48.11,0,.1.22.2.31.07.13.25.15.35.32.03.09-.05.12-.09.2,0,.12.14.18.21.22.07.05.1.13.14.22-.12.03-.34-.12-.45-.13-.07-.03-.21-.19-.35-.23-.05-.01-.08.11-.14.1-.07-.01-.14-.03-.21-.04-.08-.01-.27-.22-.35-.24-.09-.02-.21.16-.3.14-.34-.06-.35-.08-.46-.13-.13-.05-.24-.11-.36-.17-.07-.04-.05-.14-.12-.18-.07-.04-.22-.04-.29-.09-.27-.17-.53-.54-.76-.66-.15-.08-.28-.16-.45-.24-.08-.05-.14-.17-.25-.2-.32-.11-.57-.31-.94-.41-.69-.19-1.26.2-1.82.49-.03,0-.09,0-.12.02-.13.11-.28.17-.41.25-.17.14-.41.17-.61.29-.06.04-.07.15-.13.18-.09.05-.25.06-.34.12-.08.05-.09.15-.17.21-.16.13-.32.24-.53.34-.12.06-1.15.24-1.33.24-.27,0-.45.22-.85.22-.6,0-1.2-.02-1.71-.39-.11-.09-.13-.34-.2-.39-.22-.14-.2-.43-.26-.64-.07-.05-.22-.06-.21-.18.08-.61.39-1.17.76-1.59.09-.16.28-.23.3-.43,0,0,.34-.47.54-.66.04-.08-.02-.21.02-.29.31-.6.87-1.01,1.32-1.55.12-.11.21-.27.4-.3.08,0,.15.01.19-.07.09-.2.25-.31.37-.38.43-.3.8-.74,1.3-.83.08-.04.12-.11.2-.15.08-.08.22.02.3-.02.37-.17.71-.52,1.09-.58.08-.03.12-.11.16-.11.34.03.73-.27,1.05.05.29-.06.71,0,.89.15ZM19.01,21.23s0-.08,0-.12c-.15-.09-.21-.34-.4-.39-.04,0-.11.04-.12.08,0,.25.1.42.2.63.04-.16.16-.16.23-.03.04-.04.08-.12.08-.16Z"/>
  </g>
</svg>