<?xml version="1.0" encoding="UTF-8"?>
<svg id="_레이어_1" data-name="레이어 1" xmlns="http://www.w3.org/2000/svg" viewBox="0 0 48 48">
  <defs>
    <style>
      .cls-1 {
        fill: #fff;
      }

      .cls-2 {
        fill: #01a0c6;
      }
    </style>
  </defs>
  <circle class="cls-2" cx="24" cy="24" r="24"/>
  <g>
    <g>
      <path class="cls-1" d="M35.26,20.3c-1.17-2.26-1.92-4.26-2.36-5.56-.21,1.18-.73,3.89-1.51,6.6.63,1.11,1.26,1.98,1.81,2.75.75-1.12,1.51-2.44,2.06-3.79Z"/>
      <path class="cls-1" d="M32.7,24.82c-.55-.78-1.08-1.61-1.6-2.49-.39,1.24-.82,2.45-1.31,3.46.23.34.59.82,1.07,1.39.29-.33,1.01-1.19,1.84-2.36Z"/>
      <path class="cls-1" d="M22.89,25.74c.75,1.03,1.57,2.1,2.38,3.06.64-.4,1.2-.8,1.68-1.19-.42-.95-1-2.38-1.58-3.85-.55.48-1.39,1.18-2.49,1.98Z"/>
      <path class="cls-1" d="M25.05,22.93c-.7-1.8-1.36-3.54-1.7-4.44-1.07,1.11-2.17,2.13-3.28,3.07.5.8,1.34,2.09,2.35,3.51,1.19-.88,2.07-1.63,2.63-2.15Z"/>
      <path class="cls-1" d="M17.23,29.21c1.28.61,2.63,1.19,3.93,1.66.51-.2.99-.41,1.44-.63-1.14-.51-2.43-1.2-3.71-1.94-.53.3-1.08.61-1.67.91Z"/>
      <path class="cls-1" d="M18.14,27.86c-1.31-.79-2.57-1.61-3.58-2.3-.7.42-1.38.82-2.06,1.19.94.54,2.32,1.29,3.89,2.06.61-.31,1.19-.63,1.75-.95Z"/>
      <path class="cls-1" d="M31.27,27.64c.35.38.75.79,1.21,1.2,2.44-1.05,4.58-2.68,5.77-3.68-.7-.95-1.32-1.91-1.88-2.85-2,2.55-4.56,4.85-5.1,5.32Z"/>
      <path class="cls-1" d="M4.85,30.09c-.67.23-1.25.4-1.7.53h0s-.07.02-.08.04c0,.02-.02.06.06.1,1.62.53,3.34.97,4.93,1.33.62-.18,1.23-.36,1.82-.56-1.81-.46-3.58-.97-5.04-1.44Z"/>
      <path class="cls-1" d="M11.07,31.83c-.56.19-1.13.37-1.71.54,1.52.31,2.84.52,3.73.64.66-.1,1.3-.21,1.91-.34-1.2-.22-2.56-.51-3.93-.84Z"/>
      <path class="cls-1" d="M15.4,29.31c-1.58-.71-3.06-1.43-4.06-1.94-.62.31-1.22.61-1.81.87,1.28.57,2.79,1.19,4.33,1.78.53-.23,1.04-.47,1.54-.71Z"/>
      <path class="cls-1" d="M14.82,30.37c1.42.52,2.81.99,4.03,1.33.51-.16,1.01-.33,1.48-.5-1.19-.35-2.63-.9-4.04-1.51-.47.23-.96.46-1.47.68Z"/>
      <path class="cls-1" d="M12.83,30.45c-1.8-.6-3.5-1.2-4.64-1.62-.66.28-1.29.53-1.87.75,1.21.42,2.96,1,4.81,1.53.58-.21,1.15-.43,1.7-.65Z"/>
      <path class="cls-1" d="M12.25,31.41c1.45.4,2.9.74,4.16.95.51-.12,1-.25,1.48-.38-1.22-.32-2.63-.75-4.03-1.2-.52.22-1.06.43-1.61.63Z"/>
      <path class="cls-1" d="M36.28,31.56c1.43-.11,4.06-.42,6.73-1.29-.5-.42-.98-.85-1.45-1.3-1.34.51-3.87,1.42-6.64,1.77.43.28.88.55,1.35.81Z"/>
      <path class="cls-1" d="M34.33,30.33c1.17-.23,3.8-.94,6.4-2.19-.55-.58-1.07-1.17-1.56-1.77-1.26.77-3.78,2.2-6.16,2.94.4.34.84.68,1.31,1.02Z"/>
      <path class="cls-1" d="M44.87,31.68c-.4-.28-.79-.57-1.17-.87-.77.26-3.29,1.01-6.63,1.15.49.24,1,.47,1.54.68,1.43.07,3.62-.03,6.26-.81.05-.02.06-.04.06-.06,0-.05-.06-.09-.06-.09Z"/>
      <path class="cls-1" d="M18.57,22.78c-.9.7-1.8,1.35-2.7,1.94,1.55,1.33,4.76,3.86,7.3,5.26.56-.28,1.09-.57,1.57-.85-1.57-1.43-4.87-4.95-6.17-6.34Z"/>
    </g>
    <path class="cls-1" d="M25.13,16.55c.73,3.4,1.84,8.74,2.25,10.72.9-.75,1.52-1.43,1.93-1.94,1.31-7.24.96-14.65.96-14.65,0-.06,0-.52-.15-.58-.18-.07-.29.13-.29.13,0,0-2.78,4.21-4.7,6.31Z"/>
  </g>
</svg>