<?xml version="1.0" encoding="UTF-8"?>
<svg id="_레이어_1" data-name="레이어 1" xmlns="http://www.w3.org/2000/svg" viewBox="0 0 48 48">
  <defs>
    <style>
      .cls-1 {
        fill: #fff;
      }

      .cls-2 {
        fill: #009fb5;
      }
    </style>
  </defs>
  <circle class="cls-2" cx="24" cy="24" r="24"/>
  <g>
    <path class="cls-1" d="M21.41,13.14c.65-1.33,1.98-1.14,3.62-.57,1.18.38,3.28-.08,3.74-1.49l-3.05-5.15c.11,1.87-.69,2.48-1.83,2.59-.99,0-1.6.27-2.06.8l-5.49,9.42c3.05.15,5.99,1.26,8.5,4.88,1.41,2.02,3.89,3.74,8.54,4.61-2.5.56-4.48-.06-6.94-.93"/>
    <path class="cls-1" d="M26.44,27.31c-.91-.32-1.89-.67-2.98-1.02-3.24-.99-8.2-1.41-11.59.15l-6.29,10.83c4.31-3.58,12.05-4.5,17.58-2.4,6.37,2.4,12.51,3.13,19.26-.34l-4.61-7.82c-.8.65-1.6.99-2.4,1.11l.88-6.25c-2.82.31-5.26-.38-7.05-2.44-2.67-3.13-5.26-5.45-7.82-5.99"/>
    <path class="cls-1" d="M17.35,19.21c1.67,0,3,1.33,3.03,3,0,1.64-1.33,3-3,3s-3-1.33-3-2.97,1.33-3,2.97-3.03Z"/>
  </g>
</svg>