<?xml version="1.0" encoding="UTF-8"?>
<svg id="_레이어_1" data-name="레이어 1" xmlns="http://www.w3.org/2000/svg" viewBox="0 0 48 48">
  <defs>
    <style>
      .cls-1 {
        fill: #00a294;
      }

      .cls-2 {
        fill: #fff;
      }
    </style>
  </defs>
  <circle class="cls-1" cx="24" cy="24" r="24"/>
  <g>
    <path class="cls-2" d="M22.44,31.24c3.58,2.41,9.19,3.25,14.43.37-3.22,5.46-9.72,8.45-16.22,6.96-8.05-1.85-13.07-9.87-11.22-17.92,1.79-7.78,9.35-12.73,17.11-11.38,0,0,3.05.53,4.62,3.23.59.97,1.06,2.1,1.37,3.38v.03c.37,1.7.38,3.51-.04,5.32-.64,2.8-2.22,5.41-4.27,6.82h-.01c.71-.73,1.24-1.66,1.49-2.73.72-3.14-1.24-6.28-4.38-7-3.14-.72-6.28,1.24-7,4.38-.21.91-.24,1.81-.06,2.66,0,0,.55,3.55,4.2,5.89Z"/>
    <path class="cls-2" d="M21.16,29.13c1.34.75,2.96,1.09,2.96,1.09,3.67.84,7.34-.07,10.13-2.17l.02-.02c1.24-.88,2.35-2.01,3.23-3.36.57-.87,1.01-1.78,1.33-2.71.41,3.73-.37,5.84-.37,5.84-1.03,1.23-2.11,1.98-2.11,1.98-2.78,2.05-6.37,2.86-10.01,2.03,0,0-3.14-.66-5.18-2.67Z"/>
    <path class="cls-2" d="M24.83,29.78c5.73.46,11.11-3.69,12.44-8.93,0,0,.4-1.65.41-2.87,0,0-1.19-3.13-4.44-5.74,1.26,2.47,1.69,5.39,1.02,8.3-1.02,4.42-4.3,7.73-8.35,8.97-.34.1-.72.2-1.09.26h0Z"/>
  </g>
</svg>