<?xml version="1.0" encoding="UTF-8"?>
<svg id="_레이어_1" data-name="레이어 1" xmlns="http://www.w3.org/2000/svg" viewBox="0 0 48 48">
  <defs>
    <style>
      .cls-1 {
        fill: #f37520;
      }

      .cls-2 {
        fill: #fff;
      }
    </style>
  </defs>
  <circle class="cls-1" cx="24" cy="24" r="24"/>
  <g>
    <path class="cls-2" d="M28.67,14.89c0-2.6-2.11-4.71-4.71-4.71s-4.71,2.11-4.71,4.71,2.11,4.71,4.71,4.71,4.71-2.11,4.71-4.71Z"/>
    <path class="cls-2" d="M33.54,33.15s-4.41.4-9.96-3.29c-3.26-2.16-4.35-2.81-5.03-3.19-.95-.53-2.32-1.03-3.88-.95-2.36.12-4.28,1.92-4.28,4.28s1.92,4.28,4.28,4.28c2.09,0,3.83-1.51,4.2-3.5l.03-.12c.01-.06.09-.25.29-.24.21,0,.5.32,1.24.89h0l.74.6c6.05,5.04,10.92,5.64,11.88,5.77.52.07,4.75.66,9.09-1.2v-7.37c-1.25,1.76-4.96,3.89-8.62,4.04Z"/>
    <path class="cls-2" d="M37.75,20.58c-.02-.11-.11-.2-.23-.22-.09,0-.18,0-.27-.01-2.37-.03-4.84-.04-6.65,1.77-1.24,1.24-1.92,2.82-2.06,4.44h0c0,.12.07.21.16.25h0c.63.28,1.47.52,2.36.38,1.02-.16,2.11-.75,2.86-1.85.04-.05.17-.18.35-.1.14.06.18.2.15.35-.04.11-.09.22-.15.3-.89,1.32-1.8,2-3.08,2.2-.23.03-.45.05-.67.05-1.09,0-2.04-.39-2.67-.73-1.38-.6-3.72-2.42-3.72-2.42-4.33-3.5-8.01-4.11-8.13-4.14-4.18-.82-7.46.03-10.16,1.69v2.68c2.46-2.12,5.68-3.36,9.92-2.67,0,0,3.4.39,7.54,3.51,3.59,2.79,5.71,3.26,5.71,3.26,2.41.68,5.01.07,6.91-1.82,1.81-1.81,1.89-4.33,1.85-6.65,0-.1,0-.19-.01-.28Z"/>
  </g>
</svg>