<?xml version="1.0" encoding="UTF-8"?>
<svg id="_레이어_1" data-name="레이어 1" xmlns="http://www.w3.org/2000/svg" viewBox="0 0 48 48">
  <defs>
    <style>
      .cls-1 {
        fill: #fff;
      }

      .cls-2 {
        fill: #077a8d;
      }
    </style>
  </defs>
  <circle class="cls-2" cx="24" cy="24" r="24"/>
  <g>
    <path class="cls-1" d="M32.59,18.37c2.91,0,5.56,1.12,7.54,2.96v-9.08h-3.82v2.98c-1.01-.38-2.18-.66-3.5-.71-.07,0-.38,0-.45,0-1.31.05-2.49.33-3.5.71v-2.98h-3.82v9.08c1.98-1.83,4.63-2.96,7.54-2.96Z"/>
    <g>
      <polygon class="cls-1" points="10.39 29.71 6.57 29.71 6.57 35.76 22.16 35.76 22.16 32.5 10.39 32.5 10.39 29.71"/>
      <path class="cls-1" d="M10.24,25.8c.98.56,2.26,1.64,2.68,3.55h3.55c-.5-3.73-2.88-5.7-4.63-6.66.27-.89.39-1.75.43-2.48h3.49v-3.26H4.45v3.26h4.01c-.07,1.12-.34,2.61-1.24,3.77-.87,1.12-2.11,1.97-3.84,2.4l1.49,2.79c2.29-.61,4.09-1.74,5.37-3.36Z"/>
      <path class="cls-1" d="M34.74,24.4h9.88c-3.08-2.14-7.33-3.46-12.03-3.46-3.93,0-7.55.93-10.43,2.48v-6.47h-3.82v4.12h-2.58v3.33h2.58v4.96h3.82v-4.96h8.27v1.7h-5.39v3.26h11.26v4.07h3.82v-7.33h-5.39v-1.7Z"/>
    </g>
  </g>
</svg>