<?xml version="1.0" encoding="UTF-8"?>
<svg id="_레이어_1" data-name="레이어 1" xmlns="http://www.w3.org/2000/svg" viewBox="0 0 48 48">
  <defs>
    <style>
      .cls-1 {
        fill: #fff;
      }

      .cls-2 {
        fill: #f58430;
      }
    </style>
  </defs>
  <circle class="cls-2" cx="24" cy="24" r="24"/>
  <g>
    <path class="cls-1" d="M29.57,15.97s-.05-.03-.08-.04c-.12-.02-.24.06-.42.21l-.14.1c-.5.26-.87,1.5-.96,2.01-.02,0-.03.01-.05.03-.3-.52-.86-1.01-1.44-1.09.23.88,1,3.53,2.03,3.3.52-.12,1.61-2.32,1.62-3.53v-.05c0-.64-.3-.87-.57-.95Z"/>
    <path class="cls-1" d="M36.51,29.48c-1.29.05-1.72-.01-2.98.4-.18.05-.33.17-.47.33.02.27-.14.69.11.79.01,0,.01.04.02.06.07.08.15.08.22.18.05.07.09,0,.14.02.02.02.04.06.06.07.12.06.24.04.36.1.06.05.13.04.19.05.04-.01.09.08.1.1.24.1.45,0,.69,0,.72-.01.58-.08,1.3-.09.6-.01,1.19.08,1.79.07.33,0,.68,0,1.01-.02.58-.03,1.15.05,1.73.06.29,0,.62.11.92.13.31,0,.61-.08.93-.02.1,0,.2,0,.3.04.09.05.2.1.28.1.28.02.52-.08.79-.18.16-.05.32-.08.47-.17.07-.03.14-.15.17-.27.07-.22.14-.45.06-.7-.01,0-.05.02-.06,0-.03-.04-.02-.14-.06-.15-.12-.05-.23-.06-.34-.08-.15-.03-.31-.1-.46-.13-.71-.17-4.8-.79-7.24-.69Z"/>
    <path class="cls-1" d="M24.02,29.95c.13.03.28.03.35.11.07.07-.07.18-.06.27,0,.21.08.41.07.62,0,.04-.01.07-.05.11-.04.05-.1.11-.16.15-.18.11-.42.07-.63.13-.27.08-.56.11-.83.14-.5.05-.98-.05-1.49-.07-.19,0-.4.02-.56.08-.23.06-.46.05-.69.04-1.21-.04-2.39-.07-3.6-.06-.21,0-.44.04-.65.04-.97.05-1.93.04-2.9.06-.34,0-.67.02-1.01,0-.19,0-.38,0-.55.01-.71.04-1.45.07-2.17.04-.27,0-.57,0-.84,0-.8.04-1.61.17-2.42.13-.59-.03-1.15-.17-1.69-.45-.37-.19-.66-.46-.87-.77.14-.18.35-.25.57-.31.54-.15,1.04-.24,1.58-.33.46-.08.88-.11,1.32-.15,5.79-.52,12.28-.33,14.81-.15.85.06,1.64.17,2.46.35Z"/>
    <path class="cls-1" d="M34.47,24.54v.07c.05.13.15.17.26.26h.34c0-.07.08,0,.08-.07.08,0,.19-.03.25-.13h.05c.06-.1.14-.16.25-.16.14-.17.28-.33.41-.5,0-.07.03-.13.08-.17.08-.3.14-.63.28-.93,0-.1.06-.23.03-.33.03,0,.05,0,.05-.03-.03-.13.06-.2.11-.27.06,0,.11,0,.14-.07v-.07c.14,0,.29.1.4.23h.18c0,.07.04.07.07.1.14,0,.46-.03.61.03,0,.1.15.07.18.17.04.1.04.2.11.3,0,.03,0,.07-.04.1.07.1.14.26.04.37.04.13,0,.3.07.43-.07.07-.04.17-.04.23.07.13.07.3.11.46.14.17.11.36.22.53v.2c.07,0,0,.1.07.1.03.2-.07.43-.07.63-.04.03-.07.07-.11.1v.07s-.07,0-.07-.03c-.07.1-.18.17-.25.27-.07-.03-.11.03-.14.03-.07,0,0,.1-.07.1s-.15.03-.18.07c-.07.03-.32-.03-.39.03l-.04-.03s-.07.07-.15.07c0-.03,0-.07-.04-.07-.04.1-.19.16-.29.13-.03-.07-.02-.12-.1-.15-.03-.21-.03-.39-.14-.57.03,0,.03-.03.03-.06-.03-.09-.08-.18-.08-.27-.08-.12-.11-.3-.22-.39.03-.03-.06-.06-.03-.09-.05-.06-.08-.09-.14-.15-.05,0-.05.03-.08.06-.03.15-.17.27-.19.42l-.03-.03c-.03.09-.11.15-.11.24-.06.03-.08.12-.14.15v.06c-.19.18-.3.47-.53.59-.06.12-.2.15-.26.29-.09,0-.22.04-.33.07-.07-.03-.18-.1-.25-.03,0-.04-.04-.04-.07-.04l-.04.04c-.07-.07-.18,0-.29-.04-.22-.17-.47-.24-.72-.38-.07,0,0-.1-.07-.1-.04,0-.07,0-.11-.03,0-.1.04-.17-.07-.24l.04-.03s-.04-.03-.07-.03c-.04-.21-.14-.38-.18-.59t-.07-.07c0-.1-.03-.21-.07-.28-.04-.14.09-.26.02-.39,0-.03,0-.07.04-.1-.04-.16,0-.26.03-.43-.03,0-.03-.03-.03-.07.07-.13.07-.26.07-.4.03-.1.1-.2.14-.3l-.03-.03c.07-.07.03-.17.14-.23,0-.03,0-.07-.04-.07,0-.07.07-.1.1-.13.03-.07.17-.33.25-.38l-.03-.04c.06-.09.21-.12.34-.13.09,0,.27.08.32.11.04.08,0,.14.05.24h.05v.07s.03.03.05.03c.03.1.08.2.05.3,0,.03.03.03.05.03-.03.07.05.13.05.2-.05.07,0,.17-.03.26.08.17.05.37.13.53,0,.13.05.27.1.36Z"/>
    <path class="cls-1" d="M21.15,25.77s.13.09.17.15c.04.07.11.15.16.17.07.03.14.07.14.07l.05.09.11.1c.12.04.14-.03.23.09.04,0,.08,0,.08.03l.04-.03c.04.07.12.11.16.14.12,0,.22.04.3.11.04,0,.04.08.04.05.12.03.2.11.28.04.04,0,.08,0,.08.03l.04-.03c.08-.03.1.06.18.02.04,0,.04.04.04.07h.08c.08.07.42-.02.5.05.45.06,1.18-.05,1.18-.05,0-.07.11,0,.12-.06l.04.04c.15.04.31-.13.46-.06t.08-.06c.08-.03.19.11.27.01,0,.03.04.04.07.04t0-.07c.12-.06.26-.05.35-.14.04,0,.11.01.15.02t.08-.06c.2-.05.37-.2.59-.25.04-.04.11-.04.14-.12.04,0,.07,0,.11,0,.03-.03.07-.07.1-.11.12.02.22-.14.33-.15,0-.03-.01-.07.03-.07l.04.02q.07-.04.1-.12c.12.02.18-.13.24-.21t.07-.01s.03-.04.06-.08t.08-.01c.1-.08.16-.19.3-.25,0-.03-.01-.07.03-.07.08.02.06-.08.09-.12.03-.02.13-.09.16-.06,0,.06.1-.14.09-.09.03.03.16-.31.19-.33l-.32-.83c-.12.16-.53.71-.75.76,0,.17-.19.18-.32.28,0,.03.02.07-.02.07-.11.02-.16.15-.23.16,0-.03-.05-.02-.08-.02-.03.04-.1.06-.12.13-.11.03-.14.13-.21.21l-.04-.03c-.13.12-.33.11-.42.26-.21.1-.4.14-.62.22-.04,0-.07,0-.08-.03-.03.07-.19.01-.22.08-.23.01-.42,0-.64.04,0-.07-.12,0-.12-.06-.19.08-.38-.02-.57-.02-.04-.03-.11-.03-.15-.1-.19.03-.3,0-.42-.1-.11,0-.19-.1-.3-.13v-.07s-.04-.03-.08-.07c0-.1.11-.1.19-.13.08-.1.28-.08.36-.18,0-.03.1-.1.1-.13.04-.07.06-.13.1-.13.11-.07.04-.15.19-.18,0-.03.12-.12.08-.15.15-.1.15-.16.19-.36.08-.1.19-.21.19-.34.04-.03,0-.18.07-.21.04-.24-.06-.36-.06-.6t-.08-.07c0-.1-.08-.17-.04-.27-.11-.1-.09-.14-.2-.24l-.07-.07h-.08c-.04-.07-.15-.1-.15-.17-.15-.03-.3-.14-.45-.2l-.04.03-.04-.03s-.04.03-.08.07c0-.1-.11,0-.15-.07-.08,0-.15-.03-.23.03-.23-.07-.47.05-.7-.05,0,.07-.15-.03-.15.07-.08.03-.19.03-.22.06h-.12c-.11.1-.21.22-.44.22-.08,0,0,.1-.08.1h-.07c-.19.17-.34.37-.57.51,0,.03-.08.07-.04.13,0,.03-.04.03-.08.03,0,.07-.04.1-.08.14,0,.03,0,.07.04.07,0,.03-.06.12-.1.12-.04.14-.04.27-.15.34,0,.27-.08.4-.1.69.03.16.04.4.04.54.12.07-.03.07.05.17.04,0,.02.06.02.1.04.07.17.12.12.19,0,.04.07.07.11.07.04.07-.06.15.02.18,0,.04.13,0,.09.08l.07.15ZM23.63,23.57c-.08.03,0,.11-.08.14l.04.04c-.03.29-.21.68-.61.96-.04,0-.08,0-.08-.03,0-.07-.08-.18-.04-.25,0-.04-.04-.04-.08-.04.08-.07-.05-.14-.01-.25-.04,0-.04-.04-.04-.07.12-.07.02-.26.14-.33l-.04-.04c.04-.07.1-.18.17-.25v-.07c.15-.14.35-.21.55-.28.04,0,.08,0,.08.03.12.14.04.28,0,.43Z"/>
    <path class="cls-1" d="M30.23,23.25s.01.09.02.14c.26.25.21.68.38.99-.08.11-.02.24-.06.34q.05.04.1.08c-.07.24.09.46.07.7q-.04.05-.08.1s.01.09.06.09l-.04.05.05.04-.04.05s.05.04.06.09c-.08.1.07.23-.06.34.05.04.06.09.06.14-.13.11-.05.31-.14.45l.05.05-.05.05-.05-.05s-.04.05-.04.09c.05.09.14.18.05.28l.05.05c-.14.1-.18.22-.22.35t-.09.09s.05.09.05.13c-.08.09-.13.19-.21.28,0,.05.05.13-.04.18l.05.04c-.04.09-.08.23-.12.32.04,0,.04.04.04.09-.13.1-.28.2-.23.38-.08.14-.19.18-.28.32.05.09-.15.13-.15.22,0,.09-.13.05-.08.14l.04.04s-.04,0-.08,0q-.04.09-.13.14s0,.09-.04.09c-.08.06-.12.13-.2.22.04.04-.14.14-.1.14-.05.04-.09.08-.1.17-.04,0-.09,0-.09.04v.06s-.04.03-.1.04c-.34.39-.83.54-1.17.92-.09.04-.18.08-.27.12-.09.04-.06.18-.14.13,0-.04-.12.04-.16.04-.1.08-.24.02-.33.02,0-.04-.05-.03-.09-.08l-.05.04s-.14-.14-.18-.14c-.04-.05.05-.09,0-.1l.05-.04s-.07-.05-.11-.06c-.08-.1.09-.03.05-.12h-.17c-.04-.1-.12-.1-.16-.2,0-.09.2-.08.21-.18.09,0,.06-.01.15-.05l-.03-.06c.09-.04.08-.12.12-.12,0,.05.03,0,.08,0,.04,0,.09,0,.09-.04,0-.04,0-.09.06-.13t.09,0c.19-.17.07-.06.26-.27t0-.09s.05-.13.15-.17c0,.04-.01.09.04.09.14-.08.05-.13.02-.22t.1-.08s.07.01.03.01c0,.04.05-.11.09-.1.11-.17.03.03.19-.28.03-.03.11-.07.12-.09,0,0,.1-.04.06-.09,0-.03,0-.05-.08,0,.05-.08.2-.22.21-.31.13.05.03-.15.11-.15-.05.04-.09-.04-.09,0h.14c.1-.09-.13-.08-.05-.18,0-.05-.01-.07-.06-.07,0-.05-.01-.08.03-.08l.04.04s-.04-.2.04-.25c0-.04,0-.09,0-.13.13-.1.07-.08.11-.22l-.04-.04s.09-.04.05-.04t0-.09c.09-.05.15-.35.14-.44,0,.09-.1-.2-.01-.16.12-.19.04-.44.06-.67-.09-.03.07-.1.02-.18-.04,0-.09.01-.09-.03q.04-.05.08-.1s0-.09-.05-.08c0-.04,0-.09.03-.1,0-.04,0-.09-.05-.08q.04-.05.08-.1s-.05-.04-.09-.03c.03-.18-.16-.32-.09-.51-.04,0-.05-.04-.05-.08.12-.15-.04-.33.03-.47-.09-.03-.06-.13-.07-.22.04-.05-.07-.09-.08-.14-.11-.21-.08-.38-.15-.61-.08.08-.15-.62-.22-.9-.11-.17-.04-.37-.1-.55.05,0,.09-.01.09-.06-.06-.13.07-.2.11-.34.09-.01.18-.07.28.01.09-.06.03-.15.03-.19.18-.02.32-.04.51-.06,0,.05,0,.09.06.09.14-.02.19.07.33.05,0,.05,0,.09.06.09.09-.01.14.03.19.07.05,0,.09-.01.09-.06l.05.04.04-.05c.05.04.1.03.14.03.05.04.07.18.15.12.22.35.49.65.66,1Z"/>
    <path class="cls-1" d="M9.76,24.08c-.02-.07-.12-.1-.17-.1-.05,0-.13.09-.17.02,0,0-.07.12-.16.18-.06.04-.15.04-.15.04-.02.11-.03.13.07.39.05.01.09.26.14.28-.02-.1.13.21.18.26t.06.02s.02.04,0,.06l.14.1s.04.05.01.1c.11,0,.17.07.26.11.03.01.01.04,0,.07.03.01.06.02.08,0,.08,0,.02.08.03.12h.05s.07.05.07.05c.09.14.54.31.66.44l.04-.02c.03.07.23.09.23.18l.04-.03s.32.09.4.14c.04-.03-.02-.07.03-.09.05.04.15.14.2.18,0,0,.13.01.22.03.12.12.36.05.5.11.02.04.05.04.08.05l.05-.02.02.04c.09-.05.14,0,.2-.05l.02.04.04-.02s.02.04.03.07c.12.03.24.09.37.02.02.04.05.04.08.05t.09-.04c.09.02.11.06.22.05l.02.04c.13-.07.23-.05.35-.02.03-.06.09.02.12-.04l.02.03c.1-.07.26-.03.37-.04l.02.04s.03,0,.03,0c.09-.04.31-.04.37-.09.12.03.12.06.29.03.04,0,.1.02.14.03.14-.09.26-.09.37-.02.14-.02.35-.13.47-.19.03.01.07.02.1.03.05-.02.08,0,.12-.06.15-.05.26-.11.4-.2.02.04.1-.03.12,0t.04-.05c.07.02.12-.06.19-.04t.03-.05c.1-.04.06-.06.16-.1.09-.06.21-.26.41-.35,0-.07.13-.1.16-.16.01-.03.05-.02.08-.01l-.02-.04s.04-.12.08-.08c.01-.03.07-.1.04-.11.1-.08.1-.32.24-.36t.02-.06c.06-.08.04-.22.07-.24.01-.03,0-.05.03-.04.04-.12.06-.29.1-.44-.03,0-.01-.04,0-.07.03,0,.04-.02.05-.05-.03,0-.02-.04,0-.07l.04-.02c-.06-.01,0-.09-.05-.1l.04-.02c-.05-.14.02-.28-.03-.42l.04-.02c-.07-.08-.06-.17,0-.25-.02-.04,0-.07,0-.1-.08-.05.02-.1-.03-.14.03-.09-.07-.18-.01-.26-.04-.07-.05-.1-.09-.17,0-.03.02-.06.03-.09-.03,0-.06-.01-.05-.04.05-.06,0-.1.01-.16-.06-.01-.03-.06-.05-.1-.02-.16-.06-.29-.16-.42.04-.06-.04-.3-.04-.38l-.06-.03c-.03-.08-.05-.12-.11-.16t0-.07s-.06,0-.06-.04t0-.08l-.03.04c-.05-.04-.08-.11-.08-.19-.11-.15-.15-.27-.31-.49-.06.04,0-.11-.08-.08-.08-.19-.14-.24-.26-.36t0-.07s-.03,0-.07,0c-.03,0-.03-.04-.03-.08-.2-.12-.89-.22-1-.41-.06,0-.12-.04-.16.03t-.05-.08c-.16.11-.3-.08-.45-.13l-.03.04c-.05-.11-.15,0-.22,0-.03-.04-.06-.04-.09-.04-.16.07-.31,0-.44.17l-.03-.04.35.65s.09.44.18.64c.03,0,.07.08.09.12t-.02.07c.05.08.09.17.14.25-.03,0-.04.03-.05.06.04.12.04.25.07.36.05.04,0,.07.04.12,0,0-.03.08-.02.08-.02.06.02.13.02.13.02.13.01.03.1.12-.08.1.06.26-.03.36.04.05.05-.02.06.02t-.03.05s.01.04.04.05c.03.07-.02.12.01.19.03,0,0,.1.03.1,0,.06.09.08.01.13-.03,0-.01.12-.04.21.02.03,0,.18,0,.21.03,0,.05-.03.04,0t-.02.06s.03.06.02.09c0,.09-.06.14-.09.23-.03.19.06.34-.06.41.05.04-.01.09-.02.12-.04.02-.03.11-.07.14-.05.11-.07.11-.12.22-.08.05-.09.09-.17.14t-.02.06s-.04.02-.06.02c-.05.05-.23.13-.25.19l.02.04c-.1.04-.14.05-.25.12-.11.07-.2.07-.32.13-.1-.03-.19.05-.3.02-.04.02-.08.04-.12.06-.05-.01-.13.03-.17-.02-.05-.01-.04.08-.09.07t-.05-.01v-.04c-.09.04-.16,0-.24.03v-.03c-.09.04-.16,0-.21.05-.07-.05-.21-.05-.33-.04.01-.03-.02-.03-.04-.04l-.04.02s-.23-.01-.25-.02h-.05s-.02-.04-.02-.04l-.04.02s-.33-.07-.39-.14c-.05.05-.11.03-.17.02-.25-.02-.56-.13-.59-.14l-.02-.04c-.09.04-.23,0-.27-.08-.03,0-.07-.01-.1-.02-.03-.07-.23-.06-.26-.13,0,0-.1-.07-.14-.12-.07.04-.23-.15-.26-.17h-.11s-.04-.12-.04-.12l-.15-.11c-.06-.11-.12-.02-.14-.12Z"/>
    <path class="cls-1" d="M12.09,19.78s.08,0,.12,0c.2.2.58.14.84.27.1-.07.21-.03.31-.06t.06.08c.22-.07.34.05.56.03q.05-.03.11-.07s.08.01.07.05l.05-.03.03.04.05-.03s.03.04.07.05c.1-.07.17.02.29-.08.03.04.07.05.11.06.12-.1.16,0,.31-.04l.03.05.05-.03-.02-.05s.05-.03.09-.02c.06.05.11.14.22.08l.02.04c.07-.05-.46-.07.37-.1q.05-.02.11-.05s.06.05.1.06c.11-.05.19-.06.3-.11.04,0,.1.06.16,0l.02.04c.09-.01.22-.02.31-.03-.01.03-.06-.05-.02-.03.13-.06.27-.14.39-.05.14-.02.2-.09.35-.1.05.07.16-.07.23-.03.07.03.07-.06.11,0v.05s.03-.03.05-.06q.09,0,.16-.03s.07.04.09,0c.08-.03.15-.03.25-.05.01.05.09-.02.07,0,.05-.01.11-.02.17.02.02-.03.04-.06.08-.04l.04.03s.04-.01.08-.05c.44-.04.69-.26,1.13-.26.08-.03.16-.07.23-.1.08-.04.15.06.16-.02-.03-.02.09-.05.11-.08.11-.01.17-.2.22-.26-.03-.02,0-.05,0-.1h.05c-.01-.06-.02-.27,0-.3,0-.05-.09-.02-.07-.05l-.02-.03s0-.08.03-.1c-.02-.1-.11.01-.16-.06l.08-.12c-.04-.07-.2-.12-.26-.16-.04.06-.04.04-.12.08l-.03-.06c-.08.04-.12-.01-.14.02.03.02-.02.02-.04.05-.02.03-.04.06-.08.04-.03-.02-.06-.04-.12-.03t-.04.06c-.21.04-.7.05-.75-.02q-.05.01-.11.03s-.03.06,0,.02c.03.02-.1-.02-.12.02-.17,0-.55.04-.47,0-.09,0-.26.04-.32,0-.03.11-.15-.06-.18,0,.05-.02-.07-.02-.03,0v.05c-.1.03-.11-.07-.22-.03-.04-.02-.05-.03-.03-.06-.04-.01-.06-.03-.08,0l.02.05c-.05.02-.14-.09-.21-.04-.04-.01-.07-.03-.11-.04-.12.07-.25.07-.38.08l-.02-.04s-.06.07-.05.03t-.08-.02c-.07.06-.33.06-.41.04.08.02-.15-.13-.14-.05-.19.07-.41-.04-.61-.04-.01-.08-.1.05-.16,0,.01-.03.03-.07-.01-.07-.05.03-.09.02-.14.04-.04,0-.08,0-.06-.04-.04,0-.08,0-.09.02-.04,0-.08,0-.07-.04-.05.03-.1.07-.15.1-.04,0-.03-.04-.02-.08-.17.02-.26-.13-.44-.07,0-.03-.03-.04-.07-.04-.15.1-.35,0-.49.06-.02-.07-.11-.04-.19-.04-.05.03-.08-.05-.12-.05-.18-.08-.33-.04-.53-.08.07-.08-.54-.08-.78-.12-.15-.08-.33,0-.48-.05,0,.04-.02.08-.06.08-.11-.04-.18.08-.31.11-.02.08-.1.11-.08.18-.06.08-.07.09-.11.09-.03.15-.06.14-.1.29.04,0,.08,0,.07.04-.03.12.04.16.01.27.04,0,.08,0,.07.04-.02.08.01.11.04.16-.01.04-.02.08-.06.07l.03.04-.05.04s.02.08.01.12c.03.04.15.05.09.12.29.17.52.37.82.5Z"/>
  </g>
</svg>