<?xml version="1.0" encoding="UTF-8"?>
<svg id="_레이어_1" data-name="레이어 1" xmlns="http://www.w3.org/2000/svg" viewBox="0 0 48 48">
  <defs>
    <style>
      .cls-1 {
        fill: #fff;
      }

      .cls-2 {
        fill: #724597;
      }
    </style>
  </defs>
  <circle class="cls-2" cx="24" cy="24" r="24"/>
  <g>
    <polygon class="cls-1" points="34.23 10.39 31.23 8.66 26.99 11.11 26.99 6.21 24 4.48 21.01 6.21 21.01 11.11 16.77 8.66 13.77 10.39 13.77 13.85 18.01 16.29 13.77 18.74 13.77 22.2 16.77 23.93 24 19.75 31.23 23.93 34.23 22.2 34.23 18.74 29.99 16.29 34.23 13.85 34.23 10.39"/>
    <path class="cls-1" d="M19.76,29.33v-3.53l-2.99-1.73-2.99,1.73v11.8l10.23,5.92,10.23-5.92v-11.8s-2.99-1.73-2.99-1.73l-2.99,1.73v3.53l-4.24-2.45-4.24,2.45ZM28.18,35.08l-4.18,2.42-4.18-2.42,4.18-2.42,4.18,2.42Z"/>
  </g>
</svg>