<?xml version="1.0" encoding="UTF-8"?>
<svg id="_레이어_1" data-name="레이어 1" xmlns="http://www.w3.org/2000/svg" viewBox="0 0 48 48">
  <defs>
    <style>
      .cls-1 {
        fill: #af47a0;
      }

      .cls-2, .cls-3 {
        fill: #fff;
      }

      .cls-3 {
        fill-rule: evenodd;
      }
    </style>
  </defs>
  <circle class="cls-1" cx="24" cy="24" r="24"/>
  <g>
    <path class="cls-3" d="M22.56,21.62c-2.53-2.39-6.22.99-4.1,4.14,1.08,1.61,3.87,2.66,7.88,2.45.57-.03.76-.16.19-.41-3.5-1.59-2.1-4.42-3.97-6.18Z"/>
    <path class="cls-3" d="M14.38,28.99c.26-.5.33-.62-.34-.31-3.8,1.77-4.54-1.08-7.07-.7-1.4.21-2.48,1.56-2.23,3.04.29,1.77,2.34,2.44,3.97,2.27,3.35-.34,5.24-3.47,5.67-4.29Z"/>
    <path class="cls-3" d="M11.47,27.79c.13.11.31.33-.18.26-6.07-.92-7.18-4.51-5.6-6.27.84-.94,2.63-1.06,3.49-.11,1.62,1.79-.13,4.09,2.29,6.13Z"/>
    <path class="cls-3" d="M33.37,13.4c.59.02.74.14.14.38-1.43.57-2.87,1.63-2.93,4.04-.08,3.47-5.1,2.55-4.53-1.08.64-4.1,6.63-3.37,7.31-3.34Z"/>
    <path class="cls-3" d="M15.65,31.03c1.03,3.08,5.36,2.01,5-.95-.31-2.55-3.36-1.73-3.36-4.54,0-.34-.03-.62-.37-.1-.95,1.46-1.79,4.06-1.27,5.59Z"/>
    <path class="cls-3" d="M34.3,29.35c-2.66,1.88-3.64-.39-5.56-.5-2.21-.12-2.85,3.46,0,4.12,1.32.31,4.57-.32,5.9-3.56.07-.17,0-.36-.34-.06Z"/>
    <path class="cls-3" d="M33.53,26.99c.6-3.03-1.92-5.86-2.16-6.15-.06-.08-.57-.7-.35.21.66,2.71-.74,3.48-1.16,5.41-.61,2.78,3.15,3.18,3.67.54Z"/>
    <path class="cls-2" d="M18.11,20.84c-3.19.32-5.04,1.21-6.05,1.99-1.48,1.15-1.3,2.97-.42,3.86.93.93,2.71,1.22,3.86-.2,1.39-1.71.03-3.8,2.75-5.38.4-.23.15-.3-.15-.27Z"/>
    <path class="cls-3" d="M38.76,21.23c-.6.26-1.07.74-1.4,1.29-.35.58-.49,1.27-.85,1.85-.31.5-.71.98-1.18,1.33-.26.19-.4.47.09.36.4-.08.96-.16,1.64-.09.68.07,1.59.4,2,.5.85.28,1.84.27,2.48-.41,1.04-1.1.91-3.14-.11-4.22-.67-.7-1.76-1-2.67-.61Z"/>
    <path class="cls-3" d="M41.23,27.52c-2.14-.33-3.19,1.29-6.34-.88-.28-.19-.51-.35-.31.28.34,1.04,1.84,5.2,4.75,5.94,4.26,1.08,5.39-4.7,1.9-5.35Z"/>
    <path class="cls-3" d="M20.99,12.12c-.46,2.37,1.37,3.49.92,6.97-.04.28.21.27.28.12,1.39-3.19,3.46-3.07,4.25-5.53,1.17-3.68-4.84-4.68-5.45-1.55Z"/>
    <path class="cls-3" d="M11.92,21.25c2.82.22,2.97-1.86,7.99-1.58.41.02.36-.24.1-.32-4.5-1.36-5.26-4.24-7.6-4.33-3.82-.14-4.36,5.92-.48,6.23Z"/>
    <path class="cls-3" d="M15.35,15.39c1.73,2.22,3.08.76,5.06,2.9.29.31.51.16.28-.21-1.38-2.24.17-4.27-.99-5.75-2.19-2.79-6.39.44-4.35,3.06Z"/>
    <path class="cls-3" d="M31.53,17.69c0,2.36,2.59,3.45,2.76,7.85.01.29.28.3.33.01.86-4.38,3.26-5.23,3.47-7.75.32-3.89-6.56-4.6-6.56-.12Z"/>
    <path class="cls-3" d="M29.22,25.41c1.05-.91,1.41-2.53.46-3.7-1.75-2-3.63,0-5.41-3.35-.29-.55-.48-.43-.38.16.37,2.04-.3,4.07.89,5.89,1.18,1.8,3.3,2,4.44,1Z"/>
    <path class="cls-3" d="M23.81,29.22c-1.28,0-2.31,1.03-2.31,2.31v6.21h4.62v-6.21c0-1.28-1.03-2.31-2.31-2.31Z"/>
  </g>
</svg>