<?xml version="1.0" encoding="UTF-8"?>
<svg xmlns="http://www.w3.org/2000/svg" xmlns:xlink="http://www.w3.org/1999/xlink" viewBox="0 0 48 52.35">
  <defs>
    <style>
      .cls-1 {
        fill: #6f6f6f;
      }

      .cls-2 {
        fill: #757575;
      }

      .cls-3 {
        fill: #525252;
      }

      .cls-4 {
        fill: #646464;
      }

      .cls-5 {
        fill: #5f5f5f;
      }

      .cls-6 {
        fill: #585858;
      }

      .cls-7 {
        fill: #5a5a5a;
      }

      .cls-8 {
        fill: #4f4f4f;
      }

      .cls-9 {
        fill: #7c7c7c;
      }

      .cls-10 {
        fill: #313131;
      }

      .cls-11 {
        fill: #898989;
      }

      .cls-12 {
        fill: #7b7b7b;
      }

      .cls-13 {
        fill: #cacaca;
      }

      .cls-14 {
        fill: #434343;
      }

      .cls-15 {
        fill: #252525;
      }

      .cls-16 {
        fill: #8b8b8b;
      }

      .cls-17 {
        fill: #9c9c9c;
      }

      .cls-18 {
        fill: #004ea1;
      }

      .cls-19 {
        fill: #797979;
      }

      .cls-20 {
        fill: #838383;
      }

      .cls-21 {
        fill: #2c2c2c;
      }

      .cls-22 {
        fill: #c3c3c3;
      }

      .cls-23 {
        fill: #2a2a2a;
      }

      .cls-24 {
        fill: #9a9a9a;
      }

      .cls-25 {
        fill: #fcfcfc;
      }

      .cls-26 {
        fill: #777;
      }

      .cls-27 {
        fill: #727272;
      }

      .cls-28 {
        fill: #b8b8b8;
      }

      .cls-29 {
        fill: #b1b1b1;
      }

      .cls-30 {
        fill: #a7a7a7;
      }

      .cls-31 {
        fill: #4a4a4a;
      }

      .cls-32 {
        fill: #848484;
      }

      .cls-33 {
        fill: #7d7d7d;
      }

      .cls-34 {
        fill: #4e4e4e;
      }

      .cls-35 {
        fill: #f6f6f6;
      }

      .cls-36 {
        fill: #3e3e3e;
      }

      .cls-37 {
        fill: #505050;
      }

      .cls-38 {
        fill: #c2c2c2;
      }

      .cls-39 {
        fill: #272727;
      }

      .cls-40 {
        fill: #494949;
      }

      .cls-41 {
        fill: #3f3f3f;
      }

      .cls-42 {
        fill: #9f9f9f;
      }

      .cls-43 {
        fill: #4d4d4d;
      }

      .cls-44 {
        fill: #bababa;
      }

      .cls-45 {
        fill: #7e7e7e;
      }

      .cls-46 {
        fill: #8f8f8f;
      }

      .cls-47 {
        fill: #626262;
      }

      .cls-48 {
        fill: #2d2d2d;
      }

      .cls-49 {
        fill: #a4a4a4;
      }

      .cls-50 {
        fill: #c9c9c9;
      }

      .cls-51 {
        fill: #fff;
      }

      .cls-52 {
        fill: #5e5e5e;
      }

      .cls-53 {
        fill: #383838;
      }

      .cls-54 {
        fill: #cdcdcd;
      }

      .cls-55 {
        fill: #3c3c3c;
      }

      .cls-56 {
        fill: #a6a6a6;
      }

      .cls-57 {
        fill: #6e6e6e;
      }

      .cls-58 {
        fill: #424242;
      }

      .cls-59 {
        fill: #cecece;
      }

      .cls-60 {
        fill: #5b5b5b;
      }

      .cls-61 {
        fill: #9b9b9b;
      }

      .cls-62 {
        fill: #606060;
      }

      .cls-63 {
        fill: #e1e1e1;
      }

      .cls-64 {
        fill: #262626;
      }

      .cls-65 {
        fill: #535353;
      }

      .cls-66 {
        fill: none;
      }

      .cls-67 {
        fill: #4c4c4c;
      }

      .cls-68 {
        fill: #303030;
      }

      .cls-69 {
        fill: #8d8d8d;
      }

      .cls-70 {
        fill: #e5e5e5;
      }

      .cls-71 {
        fill: #d5d5d5;
      }

      .cls-72 {
        fill: #6a6a6a;
      }

      .cls-73 {
        fill: #2f2f2f;
      }

      .cls-74 {
        fill: #fbfbfb;
      }

      .cls-75 {
        fill: #e0e0e0;
      }

      .cls-76 {
        fill: #8e8e8e;
      }

      .cls-77 {
        fill: #f9f9f9;
      }

      .cls-78 {
        fill: #f2f2f2;
      }

      .cls-79 {
        fill: #404040;
      }

      .cls-80 {
        fill: #a0a0a0;
      }

      .cls-81 {
        fill: #e3e3e3;
      }

      .cls-82 {
        fill: #737373;
      }

      .cls-83 {
        fill: #929292;
      }

      .cls-84 {
        fill: #3b3b3b;
      }

      .cls-85 {
        fill: #bdbdbd;
      }

      .cls-86 {
        fill: #363636;
      }

      .cls-87 {
        isolation: isolate;
      }

      .cls-88 {
        fill: #bfbfbf;
      }

      .cls-89 {
        fill: #282828;
      }

      .cls-90 {
        fill: #909090;
      }

      .cls-91 {
        fill: #636363;
      }

      .cls-92 {
        fill: #b0b0b0;
      }

      .cls-93 {
        fill: #d8d8d8;
      }

      .cls-94 {
        fill: #3a3a3a;
      }

      .cls-95 {
        fill: #acacac;
      }

      .cls-96 {
        fill: #454545;
      }

      .cls-97 {
        fill: #6c6c6c;
      }

      .cls-98 {
        fill: #656565;
      }

      .cls-99 {
        fill: #373737;
      }

      .cls-100 {
        fill: #f1f1f1;
      }

      .cls-101 {
        fill: #575757;
      }

      .cls-102 {
        fill: #686868;
      }

      .cls-103 {
        fill: #666;
      }

      .cls-104 {
        fill: #8c8c8c;
      }

      .cls-105 {
        fill: #444;
      }

      .cls-106 {
        fill: #d3d3d3;
      }

      .cls-107 {
        fill: #939393;
      }

      .cls-108 {
        fill: #878787;
      }

      .cls-109 {
        fill: #555;
      }

      .cls-110 {
        fill: #cbcbcb;
      }

      .cls-111 {
        fill: #2b2b2b;
      }

      .cls-112 {
        fill: #969696;
      }

      .cls-113 {
        fill: #868686;
      }

      .cls-114 {
        mix-blend-mode: multiply;
        opacity: .8;
      }

      .cls-115 {
        fill: #6d6d6d;
      }

      .cls-116 {
        fill: #616161;
      }

      .cls-117 {
        fill: #ddd;
      }

      .cls-118 {
        fill: #333;
      }

      .cls-119 {
        fill: #717171;
      }

      .cls-120 {
        fill: #474747;
      }

      .cls-121 {
        fill: #c5c5c5;
      }

      .cls-122 {
        fill: #efefef;
      }

      .cls-123 {
        fill: #595959;
      }

      .cls-124 {
        fill: #eee;
      }

      .cls-125 {
        fill: #999;
      }

      .cls-126 {
        fill: #747474;
      }

      .cls-127 {
        fill: #515151;
      }

      .cls-128 {
        fill: #d6d6d6;
      }

      .cls-129 {
        fill: #858585;
      }

      .cls-130 {
        fill: #b4b4b4;
      }

      .cls-131 {
        fill: #888;
      }

      .cls-132 {
        fill: #ebebeb;
      }

      .cls-133 {
        fill: #484848;
      }

      .cls-134 {
        fill: #c7c7c7;
      }

      .cls-135 {
        fill: #464646;
      }

      .cls-136 {
        fill: #dedede;
      }

      .cls-137 {
        fill: #cfcfcf;
      }

      .cls-138 {
        fill: #b3b3b3;
      }

      .cls-139 {
        fill: #828282;
      }

      .cls-140 {
        fill: #696969;
      }

      .cls-141 {
        fill: #545454;
      }

      .cls-142 {
        fill: #a5a5a5;
      }

      .cls-143 {
        fill: #c1c1c1;
      }

      .cls-144 {
        fill: #6b6b6b;
      }

      .cls-145 {
        fill: #f5f5f5;
      }

      .cls-146 {
        fill: #353535;
      }

      .cls-147 {
        fill: #a9a9a9;
      }

      .cls-148 {
        fill: #b9b9b9;
      }

      .cls-149 {
        fill: #aeaeae;
      }

      .cls-150 {
        fill: #393939;
      }

      .cls-151 {
        fill: #959595;
      }

      .cls-152 {
        fill: #949494;
      }

      .cls-153 {
        fill: #979797;
      }

      .cls-154 {
        fill: #292929;
      }

      .cls-155 {
        fill: #ababab;
      }

      .cls-156 {
        fill: #aaa;
      }

      .cls-157 {
        fill: gray;
      }

      .cls-158 {
        fill: #7f7f7f;
      }

      .cls-159 {
        fill: #565656;
      }

      .cls-160 {
        fill: #c6c6c6;
      }

      .cls-161 {
        fill: #dcdcdc;
      }

      .cls-162 {
        fill: #b6b6b6;
      }

      .cls-163 {
        fill: #4b4b4b;
      }

      .cls-164 {
        fill: #dadada;
      }

      .cls-165 {
        fill: #e4e4e4;
      }

      .cls-166 {
        fill: #5d5d5d;
      }

      .cls-167 {
        fill: #ececec;
      }

      .cls-168 {
        fill: #bcbcbc;
      }

      .cls-169 {
        fill: #fefefe;
      }

      .cls-170 {
        fill: #e7e7e7;
      }

      .cls-171 {
        fill: #a1a1a1;
      }

      .cls-172 {
        fill: #3d3d3d;
      }

      .cls-173 {
        fill: #d2d2d2;
      }

      .cls-174 {
        fill: #eaeaea;
      }

      .cls-175 {
        fill: #f8f8f8;
      }

      .cls-176 {
        fill: #242424;
      }

      .cls-177 {
        fill: #7a7a7a;
      }

      .cls-178 {
        fill: #d1d1d1;
      }

      .cls-179 {
        fill: #9d9d9d;
      }

      .cls-180 {
        fill: #676767;
      }

      .cls-181 {
        clip-path: url(#clippath);
      }

      .cls-182 {
        fill: #343434;
      }

      .cls-183 {
        fill: #d9d9d9;
      }

      .cls-184 {
        fill: #787878;
      }

      .cls-185 {
        fill: #bebebe;
      }

      .cls-186 {
        fill: #323232;
      }

      .cls-187 {
        fill: #707070;
      }

      .cls-188 {
        fill: #5c5c5c;
      }

      .cls-189 {
        fill: #414141;
      }

      .cls-190 {
        fill: #b5b5b5;
      }

      .cls-191 {
        fill: #2e2e2e;
      }

      .cls-192 {
        fill: #f3f3f3;
      }

      .cls-193 {
        fill: #e8e8e8;
      }

      .cls-194 {
        fill: #afafaf;
      }

      .cls-195 {
        fill: #a2a2a2;
      }
    </style>
    <clipPath id="clippath">
      <path class="cls-66" d="M48,48c0,.93-10.75,1.68-24,1.68S0,48.93,0,48s10.75-1.68,24-1.68,24,.75,24,1.68Z"/>
    </clipPath>
  </defs>
  <g class="cls-87">
    <g id="_레이어_1" data-name="레이어 1">
      <g class="cls-114">
        <g class="cls-181">
          <rect class="cls-51" y="46.32" width="48" height="3.37"/>
          <ellipse class="cls-51" cx="24" cy="48" rx="24" ry="1.68"/>
          <ellipse class="cls-169" cx="24" cy="48" rx="23.89" ry="1.68"/>
          <ellipse class="cls-25" cx="24" cy="48" rx="23.78" ry="1.67"/>
          <ellipse class="cls-74" cx="24" cy="48" rx="23.67" ry="1.66"/>
          <ellipse class="cls-77" cx="24" cy="48" rx="23.56" ry="1.65"/>
          <ellipse class="cls-175" cx="24" cy="48" rx="23.45" ry="1.65"/>
          <ellipse class="cls-35" cx="24" cy="48" rx="23.34" ry="1.64"/>
          <ellipse class="cls-145" cx="24" cy="48" rx="23.23" ry="1.63"/>
          <ellipse class="cls-192" cx="24" cy="48" rx="23.12" ry="1.62"/>
          <ellipse class="cls-78" cx="24" cy="48" rx="23.01" ry="1.61"/>
          <ellipse class="cls-100" cx="24" cy="48" rx="22.9" ry="1.61"/>
          <ellipse class="cls-122" cx="24" cy="48" rx="22.79" ry="1.6"/>
          <ellipse class="cls-124" cx="24" cy="48" rx="22.68" ry="1.59"/>
          <ellipse class="cls-167" cx="24" cy="48" rx="22.57" ry="1.58"/>
          <ellipse class="cls-132" cx="24" cy="48" rx="22.46" ry="1.58"/>
          <ellipse class="cls-174" cx="24" cy="48" rx="22.35" ry="1.57"/>
          <ellipse class="cls-193" cx="24" cy="48" rx="22.24" ry="1.56"/>
          <ellipse class="cls-170" cx="24" cy="48" rx="22.13" ry="1.55"/>
          <ellipse class="cls-70" cx="24" cy="48" rx="22.03" ry="1.55"/>
          <ellipse class="cls-165" cx="24" cy="48" rx="21.92" ry="1.54"/>
          <ellipse class="cls-81" cx="24" cy="48" rx="21.81" ry="1.53"/>
          <ellipse class="cls-63" cx="24" cy="48" rx="21.7" ry="1.52"/>
          <ellipse class="cls-75" cx="24" cy="48" rx="21.59" ry="1.51"/>
          <ellipse class="cls-136" cx="24" cy="48" rx="21.48" ry="1.51"/>
          <ellipse class="cls-117" cx="24" cy="48" rx="21.37" ry="1.5"/>
          <ellipse class="cls-161" cx="24" cy="48" rx="21.26" ry="1.49"/>
          <ellipse class="cls-164" cx="24" cy="48" rx="21.15" ry="1.48"/>
          <ellipse class="cls-183" cx="24" cy="48" rx="21.04" ry="1.48"/>
          <ellipse class="cls-93" cx="24" cy="48" rx="20.93" ry="1.47"/>
          <ellipse class="cls-128" cx="24" cy="48" rx="20.82" ry="1.46"/>
          <ellipse class="cls-71" cx="24" cy="48" rx="20.71" ry="1.45"/>
          <ellipse class="cls-106" cx="24" cy="48" rx="20.6" ry="1.45"/>
          <ellipse class="cls-173" cx="24" cy="48" rx="20.49" ry="1.44"/>
          <ellipse class="cls-178" cx="24" cy="48" rx="20.38" ry="1.43"/>
          <ellipse class="cls-137" cx="24" cy="48" rx="20.27" ry="1.42"/>
          <ellipse class="cls-59" cx="24" cy="48" rx="20.16" ry="1.41"/>
          <ellipse class="cls-54" cx="24" cy="48" rx="20.05" ry="1.41"/>
          <ellipse class="cls-110" cx="24" cy="48" rx="19.94" ry="1.4"/>
          <ellipse class="cls-13" cx="24" cy="48" rx="19.83" ry="1.39"/>
          <ellipse class="cls-50" cx="24" cy="48" rx="19.72" ry="1.38"/>
          <ellipse class="cls-134" cx="24" cy="48" rx="19.61" ry="1.38"/>
          <ellipse class="cls-160" cx="24" cy="48" rx="19.5" ry="1.37"/>
          <ellipse class="cls-121" cx="24" cy="48" rx="19.4" ry="1.36"/>
          <ellipse class="cls-22" cx="24" cy="48" rx="19.29" ry="1.35"/>
          <ellipse class="cls-38" cx="24" cy="48" rx="19.18" ry="1.35"/>
          <ellipse class="cls-143" cx="24" cy="48" rx="19.07" ry="1.34"/>
          <ellipse class="cls-88" cx="24" cy="48" rx="18.96" ry="1.33"/>
          <ellipse class="cls-185" cx="24" cy="48" rx="18.85" ry="1.32"/>
          <ellipse class="cls-85" cx="24" cy="48" rx="18.74" ry="1.31"/>
          <ellipse class="cls-168" cx="24" cy="48" rx="18.63" ry="1.31"/>
          <ellipse class="cls-44" cx="24" cy="48" rx="18.52" ry="1.3"/>
          <ellipse class="cls-148" cx="24" cy="48" rx="18.41" ry="1.29"/>
          <ellipse class="cls-28" cx="24" cy="48" rx="18.3" ry="1.28"/>
          <ellipse class="cls-162" cx="24" cy="48" rx="18.19" ry="1.28"/>
          <ellipse class="cls-190" cx="24" cy="48" rx="18.08" ry="1.27"/>
          <ellipse class="cls-130" cx="24" cy="48" rx="17.97" ry="1.26"/>
          <ellipse class="cls-138" cx="24" cy="48" rx="17.86" ry="1.25"/>
          <ellipse class="cls-29" cx="24" cy="48" rx="17.75" ry="1.25"/>
          <ellipse class="cls-92" cx="24" cy="48" rx="17.64" ry="1.24"/>
          <ellipse class="cls-194" cx="24" cy="48" rx="17.53" ry="1.23"/>
          <ellipse class="cls-149" cx="24" cy="48" rx="17.42" ry="1.22"/>
          <ellipse class="cls-95" cx="24" cy="48" rx="17.31" ry="1.22"/>
          <ellipse class="cls-155" cx="24" cy="48" rx="17.2" ry="1.21"/>
          <ellipse class="cls-156" cx="24" cy="48" rx="17.09" ry="1.2"/>
          <ellipse class="cls-147" cx="24" cy="48" rx="16.98" ry="1.19"/>
          <ellipse class="cls-30" cx="24" cy="48" rx="16.88" ry="1.18"/>
          <ellipse class="cls-56" cx="24" cy="48" rx="16.77" ry="1.18"/>
          <ellipse class="cls-142" cx="24" cy="48" rx="16.66" ry="1.17"/>
          <ellipse class="cls-49" cx="24" cy="48" rx="16.55" ry="1.16"/>
          <ellipse class="cls-195" cx="24" cy="48" rx="16.44" ry="1.15"/>
          <ellipse class="cls-171" cx="24" cy="48" rx="16.33" ry="1.15"/>
          <ellipse class="cls-80" cx="24" cy="48" rx="16.22" ry="1.14"/>
          <ellipse class="cls-42" cx="24" cy="48" rx="16.11" ry="1.13"/>
          <ellipse class="cls-179" cx="24" cy="48" rx="16" ry="1.12"/>
          <ellipse class="cls-17" cx="24" cy="48" rx="15.89" ry="1.12"/>
          <ellipse class="cls-61" cx="24" cy="48" rx="15.78" ry="1.11"/>
          <ellipse class="cls-24" cx="24" cy="48" rx="15.67" ry="1.1"/>
          <ellipse class="cls-125" cx="24" cy="48" rx="15.56" ry="1.09"/>
          <ellipse class="cls-153" cx="24" cy="48" rx="15.45" ry="1.08"/>
          <ellipse class="cls-112" cx="24" cy="48" rx="15.34" ry="1.08"/>
          <ellipse class="cls-151" cx="24" cy="48" rx="15.23" ry="1.07"/>
          <ellipse class="cls-152" cx="24" cy="48" rx="15.12" ry="1.06"/>
          <ellipse class="cls-107" cx="24" cy="48" rx="15.01" ry="1.05"/>
          <ellipse class="cls-83" cx="24" cy="48" rx="14.9" ry="1.05"/>
          <ellipse class="cls-90" cx="24" cy="48" rx="14.79" ry="1.04"/>
          <ellipse class="cls-46" cx="24" cy="48" rx="14.68" ry="1.03"/>
          <ellipse class="cls-76" cx="24" cy="48" rx="14.57" ry="1.02"/>
          <ellipse class="cls-69" cx="24" cy="48" rx="14.46" ry="1.02"/>
          <ellipse class="cls-104" cx="24" cy="48" rx="14.35" ry="1.01"/>
          <ellipse class="cls-16" cx="24" cy="48" rx="14.25" ry="1"/>
          <ellipse class="cls-11" cx="24" cy="48" rx="14.14" ry=".99"/>
          <ellipse class="cls-131" cx="24" cy="48" rx="14.03" ry=".98"/>
          <ellipse class="cls-108" cx="24" cy="48" rx="13.92" ry=".98"/>
          <ellipse class="cls-113" cx="24" cy="48" rx="13.81" ry=".97"/>
          <ellipse class="cls-129" cx="24" cy="48" rx="13.7" ry=".96"/>
          <ellipse class="cls-32" cx="24" cy="48" rx="13.59" ry=".95"/>
          <ellipse class="cls-20" cx="24" cy="48" rx="13.48" ry=".95"/>
          <ellipse class="cls-139" cx="24" cy="48" rx="13.37" ry=".94"/>
          <ellipse class="cls-157" cx="24" cy="48" rx="13.26" ry=".93"/>
          <ellipse class="cls-158" cx="24" cy="48" rx="13.15" ry=".92"/>
          <ellipse class="cls-45" cx="24" cy="48" rx="13.04" ry=".92"/>
          <ellipse class="cls-33" cx="24" cy="48" rx="12.93" ry=".91"/>
          <ellipse class="cls-9" cx="24" cy="48" rx="12.82" ry=".9"/>
          <ellipse class="cls-12" cx="24" cy="48" rx="12.71" ry=".89"/>
          <ellipse class="cls-177" cx="24" cy="48" rx="12.6" ry=".88"/>
          <ellipse class="cls-19" cx="24" cy="48" rx="12.49" ry=".88"/>
          <ellipse class="cls-184" cx="24" cy="48" rx="12.38" ry=".87"/>
          <ellipse class="cls-26" cx="24" cy="48" rx="12.27" ry=".86"/>
          <ellipse class="cls-2" cx="24" cy="48" rx="12.16" ry=".85"/>
          <ellipse class="cls-126" cx="24" cy="48" rx="12.05" ry=".85"/>
          <ellipse class="cls-82" cx="24" cy="48" rx="11.94" ry=".84"/>
          <ellipse class="cls-27" cx="24" cy="48" rx="11.83" ry=".83"/>
          <ellipse class="cls-119" cx="24" cy="48" rx="11.72" ry=".82"/>
          <ellipse class="cls-187" cx="24" cy="48" rx="11.62" ry=".82"/>
          <ellipse class="cls-1" cx="24" cy="48" rx="11.51" ry=".81"/>
          <ellipse class="cls-57" cx="24" cy="48" rx="11.4" ry=".8"/>
          <ellipse class="cls-115" cx="24" cy="48" rx="11.29" ry=".79"/>
          <ellipse class="cls-97" cx="24" cy="48" rx="11.18" ry=".78"/>
          <ellipse class="cls-144" cx="24" cy="48" rx="11.07" ry=".78"/>
          <ellipse class="cls-72" cx="24" cy="48" rx="10.96" ry=".77"/>
          <ellipse class="cls-140" cx="24" cy="48" rx="10.85" ry=".76"/>
          <ellipse class="cls-102" cx="24" cy="48" rx="10.74" ry=".75"/>
          <ellipse class="cls-180" cx="24" cy="48" rx="10.63" ry=".75"/>
          <ellipse class="cls-103" cx="24" cy="48" rx="10.52" ry=".74"/>
          <ellipse class="cls-98" cx="24" cy="48" rx="10.41" ry=".73"/>
          <ellipse class="cls-4" cx="24" cy="48" rx="10.3" ry=".72"/>
          <ellipse class="cls-91" cx="24" cy="48" rx="10.19" ry=".72"/>
          <ellipse class="cls-47" cx="24" cy="48" rx="10.08" ry=".71"/>
          <ellipse class="cls-116" cx="24" cy="48" rx="9.97" ry=".7"/>
          <ellipse class="cls-62" cx="24" cy="48" rx="9.86" ry=".69"/>
          <ellipse class="cls-5" cx="24" cy="48" rx="9.75" ry=".68"/>
          <ellipse class="cls-52" cx="24" cy="48" rx="9.64" ry=".68"/>
          <ellipse class="cls-166" cx="24" cy="48" rx="9.53" ry=".67"/>
          <ellipse class="cls-188" cx="24" cy="48" rx="9.42" ry=".66"/>
          <ellipse class="cls-60" cx="24" cy="48" rx="9.31" ry=".65"/>
          <ellipse class="cls-7" cx="24" cy="48" rx="9.2" ry=".65"/>
          <ellipse class="cls-123" cx="24" cy="48" rx="9.09" ry=".64"/>
          <ellipse class="cls-6" cx="24" cy="48" rx="8.99" ry=".63"/>
          <ellipse class="cls-101" cx="24" cy="48" rx="8.88" ry=".62"/>
          <ellipse class="cls-101" cx="24" cy="48" rx="8.77" ry=".62"/>
          <ellipse class="cls-159" cx="24" cy="48" rx="8.66" ry=".61"/>
          <ellipse class="cls-109" cx="24" cy="48" rx="8.55" ry=".6"/>
          <ellipse class="cls-141" cx="24" cy="48" rx="8.44" ry=".59"/>
          <ellipse class="cls-65" cx="24" cy="48" rx="8.33" ry=".58"/>
          <ellipse class="cls-3" cx="24" cy="48" rx="8.22" ry=".58"/>
          <ellipse class="cls-127" cx="24" cy="48" rx="8.11" ry=".57"/>
          <ellipse class="cls-37" cx="24" cy="48" rx="8" ry=".56"/>
          <ellipse class="cls-8" cx="24" cy="48" rx="7.89" ry=".55"/>
          <ellipse class="cls-34" cx="24" cy="48" rx="7.78" ry=".55"/>
          <ellipse class="cls-34" cx="24" cy="48" rx="7.67" ry=".54"/>
          <ellipse class="cls-43" cx="24" cy="48" rx="7.56" ry=".53"/>
          <ellipse class="cls-67" cx="24" cy="48" rx="7.45" ry=".52"/>
          <ellipse class="cls-163" cx="24" cy="48" rx="7.34" ry=".52"/>
          <ellipse class="cls-31" cx="24" cy="48" rx="7.23" ry=".51"/>
          <ellipse class="cls-40" cx="24" cy="48" rx="7.12" ry=".5"/>
          <ellipse class="cls-133" cx="24" cy="48" rx="7.01" ry=".49"/>
          <ellipse class="cls-133" cx="24" cy="48" rx="6.9" ry=".48"/>
          <ellipse class="cls-120" cx="24" cy="48" rx="6.79" ry=".48"/>
          <ellipse class="cls-135" cx="24" cy="48" rx="6.68" ry=".47"/>
          <ellipse class="cls-96" cx="24" cy="48" rx="6.57" ry=".46"/>
          <ellipse class="cls-105" cx="24" cy="48" rx="6.47" ry=".45"/>
          <ellipse class="cls-105" cx="24" cy="48" rx="6.36" ry=".45"/>
          <ellipse class="cls-14" cx="24" cy="48" rx="6.25" ry=".44"/>
          <ellipse class="cls-58" cx="24" cy="48" rx="6.14" ry=".43"/>
          <ellipse class="cls-189" cx="24" cy="48" rx="6.03" ry=".42"/>
          <ellipse class="cls-79" cx="24" cy="48" rx="5.92" ry=".42"/>
          <ellipse class="cls-79" cx="24" cy="48" rx="5.81" ry=".41"/>
          <ellipse class="cls-41" cx="24" cy="48" rx="5.7" ry=".4"/>
          <ellipse class="cls-36" cx="24" cy="48" rx="5.59" ry=".39"/>
          <ellipse class="cls-172" cx="24" cy="48" rx="5.48" ry=".38"/>
          <ellipse class="cls-172" cx="24" cy="48" rx="5.37" ry=".38"/>
          <ellipse class="cls-55" cx="24" cy="48" rx="5.26" ry=".37"/>
          <ellipse class="cls-84" cx="24" cy="48" rx="5.15" ry=".36"/>
          <ellipse class="cls-94" cx="24" cy="48" rx="5.04" ry=".35"/>
          <ellipse class="cls-94" cx="24" cy="48" rx="4.93" ry=".35"/>
          <ellipse class="cls-150" cx="24" cy="48" rx="4.82" ry=".34"/>
          <ellipse class="cls-53" cx="24" cy="48" rx="4.71" ry=".33"/>
          <ellipse class="cls-53" cx="24" cy="48" rx="4.6" ry=".32"/>
          <ellipse class="cls-99" cx="24" cy="48" rx="4.49" ry=".32"/>
          <ellipse class="cls-86" cx="24" cy="48" rx="4.38" ry=".31"/>
          <ellipse class="cls-86" cx="24" cy="48" rx="4.27" ry=".3"/>
          <ellipse class="cls-146" cx="24" cy="48" rx="4.16" ry=".29"/>
          <ellipse class="cls-182" cx="24" cy="48" rx="4.05" ry=".28"/>
          <ellipse class="cls-182" cx="24" cy="48" rx="3.94" ry=".28"/>
          <ellipse class="cls-118" cx="24" cy="48" rx="3.84" ry=".27"/>
          <ellipse class="cls-186" cx="24" cy="48" rx="3.73" ry=".26"/>
          <ellipse class="cls-186" cx="24" cy="48" rx="3.62" ry=".25"/>
          <ellipse class="cls-10" cx="24" cy="48" rx="3.51" ry=".25"/>
          <ellipse class="cls-68" cx="24" cy="48" rx="3.4" ry=".24"/>
          <ellipse class="cls-68" cx="24" cy="48" rx="3.29" ry=".23"/>
          <ellipse class="cls-73" cx="24" cy="48" rx="3.18" ry=".22"/>
          <ellipse class="cls-73" cx="24" cy="48" rx="3.07" ry=".22"/>
          <ellipse class="cls-191" cx="24" cy="48" rx="2.96" ry=".21"/>
          <ellipse class="cls-191" cx="24" cy="48" rx="2.85" ry=".2"/>
          <ellipse class="cls-48" cx="24" cy="48" rx="2.74" ry=".19"/>
          <ellipse class="cls-21" cx="24" cy="48" rx="2.63" ry=".18"/>
          <ellipse class="cls-21" cx="24" cy="48" rx="2.52" ry=".18"/>
          <ellipse class="cls-111" cx="24" cy="48" rx="2.41" ry=".17"/>
          <ellipse class="cls-111" cx="24" cy="48" rx="2.3" ry=".16"/>
          <ellipse class="cls-23" cx="24" cy="48" rx="2.19" ry=".15"/>
          <ellipse class="cls-23" cx="24" cy="48" rx="2.08" ry=".15"/>
          <ellipse class="cls-154" cx="24" cy="48" rx="1.97" ry=".14"/>
          <ellipse class="cls-154" cx="24" cy="48" rx="1.86" ry=".13"/>
          <ellipse class="cls-154" cx="24" cy="48" rx="1.75" ry=".12"/>
          <ellipse class="cls-89" cx="24" cy="48" rx="1.64" ry=".12"/>
          <ellipse class="cls-89" cx="24" cy="48" rx="1.53" ry=".11"/>
          <ellipse class="cls-39" cx="24" cy="48" rx="1.42" ry=".1"/>
          <ellipse class="cls-39" cx="24" cy="48" rx="1.31" ry=".09"/>
          <ellipse class="cls-39" cx="24" cy="48" rx="1.21" ry=".08"/>
          <ellipse class="cls-64" cx="24" cy="48" rx="1.1" ry=".08"/>
          <ellipse class="cls-64" cx="24" cy="48" rx=".99" ry=".07"/>
          <ellipse class="cls-64" cx="24" cy="48" rx=".88" ry=".06"/>
          <ellipse class="cls-15" cx="24" cy="48" rx=".77" ry=".05"/>
          <ellipse class="cls-15" cx="24" cy="48" rx=".66" ry=".05"/>
          <ellipse class="cls-15" cx="24" cy="48" rx=".55" ry=".04"/>
          <ellipse class="cls-176" cx="24" cy="48" rx=".44" ry=".03"/>
          <ellipse class="cls-176" cx="24" cy="48" rx=".33" ry=".02"/>
          <ellipse class="cls-176" cx="24" cy="48" rx=".22" ry=".02"/>
          <path class="cls-176" d="M24.11,48s-.05,0-.11,0-.11,0-.11,0,.05,0,.11,0,.11,0,.11,0Z"/>
        </g>
      </g>
      <circle class="cls-18" cx="24" cy="24" r="24"/>
      <g>
        <g>
          <path class="cls-51" d="M12.63,17.51s.02.01.04.02c.03.02.05.05.08.07.01,0,.02.02.03.03.02.02.03.03.02.06,0,.02-.01.04-.02.06,0,.01,0,.03-.02.04-.02.02-.02.04-.03.06,0,.02-.02.04-.03.06-.01.03-.03.05-.04.08-.02.05-.04.11-.06.17,0,.03-.02.06-.02.09,0,.02,0,.03-.01.05-.02.03-.02.06-.02.09,0,.02,0,.04,0,.05-.01.05-.02.09-.03.14,0,0,0,.01,0,.02,0,.02,0,.03,0,.05,0,0,0,.01,0,.02,0,.04-.01.07-.02.1,0,.03.02.21,0,.23,0,0,0,.02,0,.05,0,.02,0,.03,0,.05,0,.02,0,.1,0,.12-.01.05,0,.23,0,.24,0,.03,0,.05,0,.08,0,.05,0,.09,0,.14,0,.02,0,.06,0,.07.01.02,0,.08.04.06.02,0,.03-.03.05-.04.02-.01.04-.01.05-.03.02-.02.05-.04.06-.06.02-.02.04-.01.05-.03.02-.01.03-.03.05-.04.04-.02.06-.03.1-.06.03-.02.06-.04.08-.06,0,0,.06-.05.08-.08.01-.01.02-.03.03-.04.01-.01.02-.03.03-.03.01,0,.03-.02.04-.04,0,0,.02-.01.03-.02.02-.07.02-.13,0-.2,0-.01,0-.02,0-.04,0-.04-.02-.09-.03-.13-.01-.04-.03-.07-.01-.11,0-.03,0-.06.01-.09,0-.04.02-.08.04-.12.03-.04.04-.09.07-.14.03-.05.07-.1.11-.14.03-.03.16-.1.17-.14,0,0,.01,0,.02-.01,0,0,.03-.05.05-.07.01,0,.02-.03.02-.04,0,0,.02,0,.03,0,0,0,0-.01,0-.02,0-.01,0-.02.02-.02.02,0,.05-.03.06-.03.05-.02.2-.12.21-.16,0,0,0-.01.01-.02.03-.02.19-.16.21-.18.04-.04.08-.08.12-.11,0,0,.01-.01.02-.01.02,0,.06-.06.08-.07,0,0,.01,0,.02-.01.03-.03.06-.06.09-.08.01,0,.02-.02.03-.04.04-.04.07-.08.09-.14,0-.03.02-.07.03-.1.01-.04.04-.08.06-.13,0-.02.02-.03.02-.05,0-.02.02-.04.02-.05.03-.07.03-.13.05-.2.01-.05.06-.14.06-.16,0-.05.01-.23.06-.31,0,0,0-.01.01-.01.03-.02.13-.04.16-.05.06-.03.19,0,.25,0,.04,0,.08.04.1.07.02.02.03.04.04.07,0,.01,0,.03,0,.04,0,.04,0,.07,0,.11,0,0,0,.01,0,.02,0,.04,0,0,0,.04,0,0,0,.02,0,.03,0,.02.01.03,0,.04,0,0,0,.01,0,.02,0,.02,0,.04,0,.05,0,0,0,.04,0,.05,0,.02.02.09.01.12,0,.02,0,.17,0,.2,0,.02,0,.05,0,.08,0,0,0,.02,0,.02,0,.04,0,.1.02.12.01.01,0,.1,0,.12,0,.05,0,.1,0,.15,0,0,0,.01,0,.02.02.04.01.08,0,.12,0,.04,0,.08,0,.12,0,.03-.01.07,0,.1-.02.04,0,.08,0,.12,0,.04,0-.16,0-.12,0,.04,0,.09,0,.13,0,0,0,.01,0,.02.01.06,0,.12,0,.18,0,.01,0,.02,0,.03,0,0-.01.07-.02.09,0,.05-.04.4-.07.45-.01.02-.02.16-.02.19-.01.04,0,.12-.01.14,0,.01-.03.2-.03.22,0,.04-.03.11-.01.15,0,.01,0,.03,0,.04,0,.05-.01.09-.02.14,0,.02,0,.03,0,.05,0,0,.01.16,0,.19,0,0,0,.02,0,.03,0,.02,0,.04,0,.05,0,.02,0,.04.01.05.01.01.01.03.01.05,0,.01,0,.03,0,.04,0,.01,0,.02,0,.03,0,.04,0,.15,0,.16.01.02,0,.09,0,.11,0,0,0,.03,0,.04,0,.09.04.2.03.22,0,.02-.01.04,0,.06,0,.02,0,.03-.02.04-.01,0-.03.02-.04.03-.02.02-.09.03-.11.03,0,0-.01,0-.02.01-.02.02-.03.03-.06.04,0,0-.02,0-.02,0-.03,0-.06,0-.08,0,0,0-.01,0-.02,0-.02,0-.03.02-.05.03-.01,0-.03,0-.04,0-.02-.02-.04-.05-.05-.07,0-.02-.01-.03-.01-.05,0-.06-.05-.26-.05-.26,0-.04-.02-.07-.01-.11,0,0,0-.02,0-.02,0,0-.01-.06-.01-.08,0-.04,0-.07,0-.11,0-.01,0-.02,0-.03-.02-.03-.02-.1-.02-.19,0,0,0-.02,0-.03,0-.06.01-.18,0-.18,0-.12.01-.19.01-.2,0-.03,0-.06,0-.09,0-.01,0-.03,0-.04,0-.03,0-.06,0-.1,0-.05,0-.1.01-.15,0-.06,0-.11,0-.16,0-.06.01-.12.02-.18,0-.07.06-.43.07-.5,0-.06.01-.12.02-.18,0-.02,0-.04,0-.06,0-.02,0-.04,0-.06,0-.03,0-.06,0-.09,0-.03,0-.07,0-.1,0-.07,0,.12,0,.05,0-.03,0-.05,0-.08,0-.03,0-.06,0-.09,0,0-.01,0-.01,0-.02.04-.06.06-.09.09,0,0-.02.01-.02.02,0,0-.02.02-.03.03,0,0,0,0,0,.01-.05.04-.09.1-.14.13-.02.01-.03.03-.05.03-.03.01-.05.05-.09.06-.01,0-.02.02-.03.02-.02.02-.04.05-.08.06,0,0,0,0-.01.01-.02.03-.06.06-.08.07,0,0-.15.07-.17.08-.05.03-.1.05-.15.09-.05.04-.11.09-.17.12-.03.02-.07.04-.09.07,0,0-.07.04-.1.07-.02.02-.03.04-.05.06-.05.05-.09.1-.15.14-.02.01-.09.04-.09.06,0,.03,0,.02,0,.04,0,.02.03.06.04.07,0,.01.04.03.04.04,0,.02,0,.04.02.06.03,0,.06,0,.09,0,.03,0,.05,0,.08.02,0,0,.06.01.07.03,0,0,0,0,0,0,.04,0,.06.03.09.05.01,0,.09.04.11.07,0,0,0,0,.01,0,.04,0,.05.04.06.07,0,.01,0,.03,0,.04,0,0,0,0,0,.01,0,.02-.02.04-.04.04,0,0,0,0-.01,0,0,0,0,0,0,.01,0,.02-.11.1-.14.13-.01.01-.02.03-.03.04-.02.02-.11.09-.12.11,0,0-.05.08-.08.09,0,0-.01,0-.02.02,0,.02-.09.06-.11.08-.03.03-.05.06-.09.08,0,0-.1.06-.12.11,0,0-.05.02-.06.03,0,0-.02.02-.02.02-.03,0-.06.03-.08.04,0,0-.02,0-.03.01,0,0-.02,0-.02.01,0,.01-.01.01-.03.01-.02,0-.04.03-.05.03-.04.01-.06.04-.09.06,0,0-.01,0-.02.01-.02.02-.13.11-.15.11,0,0-.01,0-.02.01-.02.01-.04.02-.06.03-.03.01-.05.02-.08.03,0,0-.05,0-.07.02,0,0-.02.01-.03.01-.04,0-.07,0-.1.02,0,0-.06,0-.08.01-.02,0-.04.01-.06.02-.02,0-.04,0-.05-.02-.02-.02-.05-.04-.07-.07,0,0-.01-.01-.02-.02,0-.02-.02-.04-.02-.05-.03-.05-.05-.1-.08-.15,0,0,0-.01,0-.02,0-.01,0-.03,0-.04,0,0,0-.02,0-.02,0-.02-.02-.08-.02-.09,0-.02,0-.04,0-.06,0-.02.02-.07.02-.07,0-.05,0-.11,0-.16,0-.07,0-.14.01-.21,0-.03,0-.05,0-.08,0-.09,0-.19.01-.28,0-.01,0-.03,0-.04,0-.01,0-.03,0-.04,0,0,0-.06,0-.08,0-.03,0-.07.01-.1,0-.02.02-.08.02-.09,0-.02,0-.05,0-.07,0-.02,0-.04.01-.07,0-.05.01-.1.03-.15,0-.02,0-.04,0-.05,0-.03.03-.14.04-.16,0-.04.05-.16.07-.22,0-.04.02-.07.03-.1,0,0,0-.01,0-.02.03-.02.05-.12.05-.13,0-.03.01-.06.04-.08,0,0,.01-.01.01-.02,0-.05.03-.09.06-.13.03-.04.06-.08.08-.13,0-.02-.08,0-.09,0-.05.01-.22.05-.24.07-.02.01-.16.05-.18.06,0,0-.07.04-.1.05-.03.02-.07.02-.11.03-.01,0-.09.04-.12.06-.02,0-.04,0-.05.01,0,0,0,0,0,0-.08.02-.17.01-.25.01-.07,0-.12-.03-.16-.08-.01-.01-.02-.03-.03-.04-.02-.02-.03-.04-.05-.06-.02-.02-.07-.12-.07-.14,0-.01.06,0,.12-.03.07-.03.15-.05.22-.08.05-.03.1-.05.15-.08.07-.03.14-.08.21-.11.03-.02.06-.03.09-.04.1-.05.2-.09.3-.13.05-.02.09-.03.14-.04.04-.01.08-.03.13-.04.08-.02.17-.05.25-.06.07-.02.15-.03.22-.04.03,0,.06-.02.09-.03.03-.01.06-.01.1-.01.02,0,.03,0,.05,0,0,0,.01,0,.02,0,.04,0,.08,0,.13,0,0,0,.02,0,.03,0,.04.02.09.04.13.06.02.01.04.03.06.04.04.02.05.06.06.1,0,.03.02.06.03.08,0,.01,0,.03,0,.04-.02.03-.03.07-.04.11,0,.02-.02.03-.03.04-.04.02-.08.04-.12.04-.03,0-.17.05-.19.06,0,0-.02,0-.02.02-.02.02-.03.02-.06.01-.02,0-.05.01-.08.01,0,0-.01,0-.01,0-.02.02-.22.05-.21.06Z"/>
          <path class="cls-51" d="M17.95,20.9s-.17.04-.18.05c-.09.02-.12.02-.28.02-.03-.01-.06-.02-.07-.04-.01-.02-.02-.02-.03-.04-.01-.02-.02-.03-.02-.06,0-.06-.02-.11,0-.17.01-.03.02-.06.04-.09,0,0,0-.01.01-.02.02-.04.09-.07.11-.1.05-.02.18-.12.19-.13.04-.06.27-.3.29-.36.02-.04.22-.31.22-.33,0-.02.02-.04.03-.06,0-.03,0-.03-.02-.05-.03.02-.04.02-.07.03-.05.02-.04.03-.09.04-.05.01-.1.05-.14.07-.02,0-.04.02-.06.03-.05.03-.45.22-.47.23-.04.02-.2.11-.23.14-.03.03-.02.04-.06.04-.01,0-.03,0-.04,0-.02,0-.04,0-.06,0-.05,0-.05-.04-.1-.06-.05-.03-.09-.07-.11-.12-.02-.05-.04-.11-.04-.17,0-.02,0-.04,0-.05,0-.01,0-.02,0-.03-.01,0-.02-.02,0-.04,0,0,.07-.13.09-.16.02-.03.05-.04.08-.05.01,0,.02,0,.03-.02.01-.01.03-.02.05-.02.04,0,.09-.01.13-.02,0,0,.16-.06.17-.07.03-.01.06-.03.09-.04.06-.02.12-.04.17-.06.04-.01.11-.05.14-.06.03,0,.03,0,.03-.04,0-.05,0-.1,0-.15,0-.03,0-.06,0-.08,0,0,0-.08,0-.12,0-.01,0-.03,0-.04,0-.02,0-.03,0-.05,0-.02,0-.03-.03-.02-.02,0-.03,0-.05.01-.04.01-.07.03-.1.04,0,0-.01,0-.02,0-.05,0,.02,0-.03.02-.02.01-.05.02-.08.03,0,0-.02,0-.03,0-.03,0-.06.02-.09.02-.02,0-.04.01-.05.02-.01,0-.03,0-.04.01,0,0-.02,0-.03,0-.05.03-.1.05-.16.06-.03,0-.05.02-.08.03,0,0-.01,0-.02,0-.03,0-.37.16-.4.17-.02.01-.04.02-.07.01-.01,0-.03,0-.04,0,0,0,0,0-.01,0-.04,0-.07.02-.11.01-.03,0-.05.02-.07,0-.01,0-.03,0-.05-.01-.02,0-.03-.05-.05-.05-.04,0-.09-.1-.12-.12-.03-.03-.06-.07-.07-.11,0,0,0-.02-.01-.02-.02-.01-.02-.03-.03-.05,0-.08,0-.12.06-.17,0,0,0,0,0,0,.05-.02.1-.05.15-.06.03,0,.05-.02.08-.03,0,0,.01,0,.02-.01.04-.01.08-.03.12-.04.04-.01.08-.02.12-.03.02,0,.04-.01.06-.02.06-.02.11-.04.17-.04.05,0,.23-.08.29-.09.06,0,.19-.07.22-.07.03,0,.05,0,.08-.01.02,0,.1-.02.12-.03.06-.02.14-.03.16-.04.01-.01.09-.02.11-.04,0,0,.03-.01.04-.02.02,0,.03,0,.04-.01.01-.01.03-.02.05-.02,0,0,0,0,0,0,.03-.03.06-.02.1-.03.01,0,.02-.01.03-.02,0,0,.11-.03.15-.04.03,0,.16-.07.2-.09.03-.01.08,0,.1-.03.01-.02.09-.06.12-.07.05-.02.09-.04.14-.06.02,0,.04-.02.06-.02.01,0,.1-.04.14-.05.02,0,.04-.01.06-.01.05,0,.23-.07.27-.1.09-.02.13-.02.22-.04.04,0,.08,0,.12,0,.05,0,.11,0,.15.03.01,0,.03.01.04.02.04.03.04.05.07.09.04.06.16.37.1.37-.02,0-.02,0-.04,0-.04,0-.13.03-.16.03-.03,0-.06,0-.08,0-.02,0-.03.02-.05.02-.04,0-.39.1-.41.12,0,0,0,0,0,0-.07.03-.12.08-.2.1-.02,0-.04.01-.05.02-.05.03-.22.09-.27.11,0,0-.01,0-.02,0-.02,0-.03.01-.05.03-.01.01-.03.02-.05.03-.01,0-.02.01-.03.02-.01.02-.03.03-.04.04-.01.01-.03.03-.04.04-.02.03-.04.07-.05.1-.01.03-.03.06-.04.08,0,0,0,.01,0,.02,0,.02-.04.04-.04.05-.02.05-.03.1-.05.15,0,0,0,.01,0,.02,0,0,.02,0,.02,0,.03-.01.06-.02.09-.04.02-.01.19-.06.2-.07.07-.03.25-.08.33-.08.02,0,.04,0,.06,0,.05,0,.1,0,.15.03,0,0,.02,0,.03.01.04.02.07.04.1.07.02.02.04.04.05.07.01.04.01.15.01.19,0,.02,0,.03-.02.05-.02.05-.03.1-.06.14,0,0-.1.06-.11.07,0,0-.01.02-.02.03-.06.06-.2.19-.25.26,0,.01-.01.02-.02.04-.01.02-.28.29-.29.3-.02.03-.16.18-.16.19.01.01.07-.02.08-.02.04-.03.15-.06.19-.07.04,0,.18-.09.22-.1.04-.02.09-.02.14-.02.02,0,.04,0,.06,0,.02,0,.04,0,.05.02.03.03.04.06.04.09,0,.01,0,.02,0,.04,0,.02,0,.05,0,.07-.02.16-.09.2-.1.23,0,.01-.07.07-.08.08-.02.03-.11.07-.12.11,0,.01-.13.11-.14.14-.02.03-.06.09-.07.12,0,.02-.01.04-.02.05,0,.03-.02.05-.02.08,0,.03-.01.07-.02.1,0,.01,0,.03,0,.04,0,.03,0,.08,0,.11,0,.04.06.06.1.07.03,0,.05,0,.08,0,.09-.02.17-.05.25-.08.03-.01.06-.02.09-.03.11-.04.21-.1.3-.17.08-.06.15-.13.22-.21.03-.03.06-.07.09-.1.03-.05.06-.1.09-.15.02-.04.04-.08.06-.13,0,0,0-.02,0-.03,0-.02.01-.04.02-.05.02-.02.05-.02.06,0,0,.01.01.02.02.04,0,.01.02.02.02.04,0,0,0,.01.01.02,0,.01,0,.03.01.05.01.03.02.05.01.08,0,.04-.01.08-.02.12,0,.02,0,.03,0,.05,0,.09-.04.17-.08.24-.03.06-.07.11-.11.16-.02.03-.04.05-.06.08-.02.02-.07.07-.07.08-.03.05-.08.06-.11.1,0,.01-.02.02-.03.02-.01,0-.03.02-.04.03,0,0-.01,0-.02,0-.03,0-.05,0-.07.02-.01,0-.03.01-.05.02-.02,0-.04.02-.06.03-.02,0-.24.1-.28.11-.02,0-.04.02-.05.02,0,0-.09.03-.12.04,0,0-.02,0-.03.01-.07.01-.14.03-.21.03-.06,0-.13,0-.19-.01-.02,0-.04,0-.06,0-.03,0-.06,0-.09-.02,0,0,0,0-.01,0,0,0,0,0-.01,0-.03,0-.05-.02-.08-.03-.04-.01-.06-.04-.09-.07-.01-.01-.02-.03-.03-.04-.03-.03-.04-.06-.05-.1-.02-.08-.02-.16,0-.24,0,0,0-.01,0-.02,0-.02,0-.05,0-.07,0-.05.01-.11.02-.16,0-.02,0-.05,0-.07Z"/>
          <path class="cls-51" d="M23.36,17.64s-.01.02-.02.03c0,.02-.02.03-.04.03-.02,0,0,0-.02.03-.04.04-.05.06-.06.08,0,.01-.04.04-.05.05-.02.01-.04.03-.06.04-.01,0-.17.14-.19.16-.04.05-.36.28-.39.3,0,0-.04.02-.06.04-.04.02-.08.05-.12.07-.09.04-.17.09-.26.11,0,0-.01,0-.01,0-.02.03-.25.02-.29.04-.02.04.01.09,0,.13,0,.01,0,.07,0,.08-.01.05,0,.11,0,.16,0,.03,0,.08-.01.11-.01.03-.02.08-.04.12-.01.03-.05.12-.05.14,0,.02-.05.12-.06.14,0,.02-.01.04-.02.06,0,.02-.02.04-.03.06,0,.01-.04.05-.06.08,0,0,0,.02-.01.02-.04.09-.11.15-.18.21-.01.01-.03.02-.05.02-.02,0-.05.01-.07.03-.04.02-.09.03-.13.01,0,0-.08.01-.1.02-.04.01-.08.02-.12.02-.05,0-.08-.02-.12-.04,0,0-.01-.01-.02-.02-.01-.01-.03-.03-.04-.04-.06-.04-.12-.1-.13-.17,0-.02-.05-.12-.06-.17,0-.02-.01-.04-.02-.06,0-.02,0-.04,0-.06,0-.02,0-.05-.01-.07,0,0,0,0,0,0,0-.06-.03-.13-.02-.19,0,0,0-.01,0-.01,0-.13.01-.21.01-.27,0-.04,0-.08.01-.12,0-.02.02-.04.02-.06,0-.02,0-.04,0-.06,0-.05.03-.17.03-.18,0-.03,0-.06.01-.09,0-.05.02-.09.04-.13.01-.03.01-.05.02-.08,0,0,0-.02.01-.03,0-.01,0-.02.01-.03.01-.03.02-.06.03-.09,0-.01.01-.02.02-.03.03-.1.05-.13.05-.14.02-.03.11-.13.15-.14.02-.02.04-.03.06-.04.03-.01.07-.02.11-.03.03,0,.05,0,.08,0,.01,0,.02,0,.03,0,.06.01.12.03.17.07.03.03.13.14.15.16.01.02.04.15.08.17.04.01.07.04.09.07.03.03.06.04.1.03,0,0,.11-.04.15-.07,0,0,.01-.01.02-.01.03,0,.06-.03.08-.06.02-.03.05-.05.08-.07.05-.04.09-.08.13-.12.06-.05.13-.11.19-.16.04-.03.07-.06.1-.1.02-.02.04-.04.06-.05.11-.08.21-.2.32-.29.01,0,.02-.02.04-.03.05-.04.16-.14.21-.17.03-.02.06-.07.07-.06.06-.06.08-.04.11-.06,0,0,.03.02.05-.06.02-.02.06-.24.06-.26,0-.02.01-.04.03-.06.01-.01.01-.16.06-.18,0,0,.05-.03.06-.03.01,0,.12-.03.16-.03,0,0,.01,0,.01,0,.04-.03.08,0,.12,0,.04.01.08.03.12.05.03.02.05.04.08.07,0,0,.02.02.03.02.02.01.04.03.03.05,0,0,0,0,0,0,.04.03.04.08.07.12,0,.03,0,.05,0,.08,0,.02,0,.16-.01.18,0,0,0,.06,0,.07,0,.03-.09.45-.09.45-.02.03,0,.07,0,.1,0,.1,0,.2-.01.3,0,.04-.01.07-.02.11,0,.02,0,.04,0,.06,0,.04-.01.08-.01.13,0,.02,0,.03,0,.05,0,.03,0,.06-.01.09,0,.04-.02.07-.02.11,0,.05-.01.1-.02.15,0,.03,0,.06,0,.09,0,0,0,.01,0,.02-.01.05-.02.1-.03.14,0,.03,0,.07,0,.1-.02.09,0,.17-.01.26,0,.01,0,.02,0,.03,0,.02,0,.14,0,.18,0,.01,0,.03,0,.04,0,.05,0,.09,0,.14,0,.01,0,.02,0,.03.01.03.01.06.01.09,0,.04,0,.09,0,.13,0,0,0,0,0,0,0,.06.04.23.06.29,0,.02.01.04.02.07.01.04.02.08.03.13,0,0,0,0,0,0,0,.04,0,.07.02.1,0,.02.01.05.02.07,0,.06.03.11.05.17,0,.01,0,.03,0,.04,0,.01,0,.02,0,.03,0,.03.01.05.02.08.14.29,0,.09-.03.05-.01,0-.02.05-.03.05-.03.01-.07-.02-.09,0,0,0-.03,0-.03-.01-.03-.04-.07-.04-.12-.03-.02,0-.03,0-.04-.02,0-.01-.02-.02-.03-.03,0,0-.07-.02-.09-.01-.02,0-.04,0-.06-.02-.03-.02-.05-.05-.06-.09-.03-.06-.05-.12-.06-.19,0,0,0-.02,0-.03,0-.02,0-.03-.01-.05,0,0,0-.02,0-.02-.03-.12-.1-.43-.1-.48,0-.07-.03-.24-.03-.29,0-.02,0-.04,0-.05,0-.03,0-.1,0-.11,0-.03,0-.07,0-.09,0-.08,0-.17,0-.25,0-.03,0-.16,0-.2,0-.02,0-.05,0-.08,0-.05,0-.19,0-.24,0-.03,0-.26,0-.26,0-.03,0-.06,0-.08,0-.06,0-.11.02-.16,0,0,0-.02,0-.03-.01-.02-.01-.03,0-.05,0-.06.02-.12.02-.17,0,0,0-.02,0-.03.01-.02.01-.04.01-.06,0-.02,0-.03,0-.05,0-.01,0-.03-.01-.04ZM21,19.45s.02,0,.03,0c.03-.02.04-.02.06-.03.02-.01.05-.07.05-.1,0-.01,0-.03.01-.04.04-.08.08-.16.1-.24,0-.02.01-.04.02-.06,0-.04.02-.09.03-.13,0-.06.01-.12.02-.18,0,0,0-.02,0-.03-.01-.02-.02-.04-.02-.06,0-.03-.01-.05-.03-.06-.03-.02-.06-.02-.09-.02-.05,0-.06.01-.06.05,0,.06-.03.11-.04.16-.01.06-.03.12-.04.18,0,.03-.01.12-.02.14,0,0,0,.01,0,.02,0,.03,0,.07,0,.1,0,.03,0,.06,0,.09,0,.05,0,.1,0,.15,0,.02,0,.03,0,.05Z"/>
          <path class="cls-51" d="M18.14,16.6s-.19.07-.21.09c0,0,0,0,0,.01-.03.01-.05.03-.08.04-.04.01-.07.03-.11.04,0,0-.02,0-.02,0-.02,0-.03,0-.05,0-.02,0-.03,0-.05,0-.05-.02-.14,0-.19-.03-.01,0-.03,0-.03,0,0,0,0,.02,0,.03,0,.01,0,.02,0,.03,0,.06,0,.12,0,.17,0,.05,0,.11.01.16,0,.05.01.1.03.16,0,.04.02.08.01.13,0,0,0,.02,0,.03,0,0,0,.01,0,.02-.03.04-.04.1-.07.14-.02.03-.04.05-.08.06-.05.01-.11.02-.16,0-.03-.01-.12-.01-.16-.03-.03-.02-.06-.05-.07-.08,0-.02-.01-.03-.02-.05-.02-.04-.02-.08-.03-.12,0-.02,0-.03,0-.05-.01-.03-.01-.06-.01-.1,0-.02,0-.05,0-.07,0,0,0,0,0-.01,0,0,.04-.24.03-.3,0-.04,0-.08,0-.12,0-.02,0-.04,0-.06,0,0,0-.02,0-.02,0,0,0,0,0,0,0-.05.01-.09,0-.14,0,0,0-.01,0-.02.01-.05.04-.15.04-.16,0-.04,0-.09-.01-.13,0,0,0-.01,0-.02,0-.03,0-.06.01-.09,0-.01,0-.03,0-.04,0-.02,0-.05,0-.07,0,0,0-.02,0-.02-.01-.04,0-.07,0-.11,0-.04.01-.08.02-.13,0-.03.01-.06.02-.09.01-.03.02-.06.03-.1,0-.03.02-.17.03-.22,0,0,0-.02,0-.02,0-.02,0-.04,0-.05.01-.03.03-.06.04-.09,0-.02.03-.02.05-.02.03,0,.09,0,.12,0,.06,0,.1.03.15.06.03.02.06.04.08.07.05.02.06.07.06.12,0,.05-.01.09-.02.13,0,.02-.02.04-.03.06-.02.04-.03.07-.04.11,0,.05-.01.1-.02.15,0,0,0,.01,0,.02-.02.04,0,.2-.02.23,0,0,0,.02,0,.03,0,.02,0,.04,0,.05,0,.01,0,.03,0,.04,0,.02.01.05.02.08,0,0,.01,0,.02,0,.03-.02.2-.11.23-.13.02-.01.03-.03.05-.04.03-.02.07-.03.08-.05.02-.03.08-.06.11-.07.02-.01.03-.03.05-.05.02-.03.05-.05.08-.07.02-.01.05-.03.07-.05,0,0,.01,0,.02-.01,0,0,.02,0,.02-.01.03-.02.03-.04.06-.06.02,0,.03-.03.03-.05,0-.05.01-.14.01-.14-.01-.04,0-.09,0-.13,0-.03,0-.05,0-.08,0-.03,0-.04,0-.06,0-.03.02-.05.02-.08,0-.05.02-.11.04-.16,0-.03.01-.05.02-.08,0-.02.01-.04.02-.06.02-.03.03-.05.05-.08,0-.02.02-.03.03-.04.05-.03.1-.04.16-.03.02,0,.03,0,.05,0,.04,0,.08.01.12.03.04.03.08.06.12.1.03.03.04.07.05.1,0,0,0,.02,0,.03,0,.03-.02.06-.03.1,0,.02-.02.05-.03.07,0,0,0,.02-.01.04-.01.05-.05.17-.05.18,0,.03,0,.03,0,.06.08-.01.18-.04.22-.05.05-.01.11-.02.16-.02.02,0,.04.01.06.02.01,0,.03.01.04.01.01,0,.03.01.03.02.01.02.02.05.03.07,0,.03.01.06.02.1,0,.01,0,.02.02.03.02,0,.03.02.03.05,0,0,0,0,0,0,.01.04,0,.07,0,.11,0,0,0,.02,0,.03-.02.03-.03.07-.07.08,0,0,0,0-.01,0-.02.02-.04.04-.07.04,0,0-.06.04-.08.05-.03.02-.06.03-.1.04,0,0-.05.02-.08.04-.06.02-.1.05-.16.08,0,0-.01,0-.01,0-.03.04-.07.06-.11.09-.02.02-.03.04-.04.07,0,.03-.04.41-.04.48,0,0,0,.02,0,.03,0,.03,0,.03.03.04.02,0,.05,0,.08,0,.02,0,.04,0,.05.02.01.01.03.03.04.04.01.01.02.02.03.04,0,0,0,.01,0,.02.05.01,0,.19-.05.18-.05.03-.1.06-.15.09,0,0-.01,0-.01,0-.05.06-.12.08-.19.11-.02,0-.08.03-.11.04-.03.01-.08.01-.1.02-.03.01-.09.02-.12.03,0,0,0,0-.01,0-.04,0-.12.02-.16.03-.02,0-.06.02-.08.01-.03-.01-.07,0-.1-.01-.04-.01-.06-.04-.07-.08,0-.02-.01-.04-.02-.05,0-.02-.01-.04,0-.07.01-.03.02-.06.05-.08.04-.04.09-.06.14-.09.03-.02.19-.07.22-.08.04-.02.06-.06.05-.11-.01-.05-.03-.15-.03-.17,0-.04,0-.15,0-.2,0,0,0,0,0,0Z"/>
        </g>
        <g>
          <path class="cls-51" d="M35.64,31.13c-.59,0-1.93-.06-1.93-.68,0-.47.99-.6,1.93-.6,1.1,0,1.91.22,1.91.6,0,.65-1.32.68-1.91.68ZM35.64,33.26c1.67,0,2.74-.26,3.61-.71.88-.44,1.38-1.27,1.38-2.12s-.48-1.52-1.34-1.96-1.98-.64-3.65-.64-2.76.17-3.64.62c-.88.44-1.36,1.15-1.36,1.98s.5,1.68,1.37,2.12c.87.44,1.96.71,3.63.71Z"/>
          <path class="cls-51" d="M12.97,21.41v6.3h-7.18s0-6.3,0-6.3h7.18ZM8.46,23.62v1.91h2v-1.91h-2Z"/>
          <rect class="cls-51" x="14.12" y="21.21" width="2.74" height="8.18"/>
          <polygon class="cls-51" points="9.99 30.62 16.9 30.49 16.9 33 6.66 33 6.75 28.51 10.08 28.51 9.99 30.62"/>
          <path class="cls-51" d="M30.26,21.42v5.94s3.1.07,4.88-.14c1.49-.17,2.19-.56,2.19-.56l-.59-2.06s-.52.22-1.31.32c-1.07.14-2.34.1-2.34.1v-1.41h3.64v-2.2h-6.48Z"/>
          <polygon class="cls-51" points="42.22 23.71 40.44 23.81 40.44 21.21 37.83 21.21 37.83 27.54 40.44 27.54 40.44 26.17 42.19 26.25 42.22 23.71"/>
          <polygon class="cls-51" points="29.18 27.96 18.07 27.98 18.07 30.37 22.13 30.37 21.98 33.05 25.23 33.05 25.08 30.37 29.18 30.38 29.18 27.96"/>
          <path class="cls-51" d="M27.49,25.03c-1.36-.26-2.01-.79-2.15-1.4h3.4s0-2.21,0-2.21h-10.21v2.22h3.35c-.12.51-.73,1.12-2.16,1.37-.75.13-1.5.18-1.5.18l.69,2.29s1.81-.04,2.69-.33c1.09-.36,1.71-.86,2.01-1.4.3.55.92,1.05,2.01,1.4.88.29,2.76.33,2.76.33l.66-2.29s-.73,0-1.54-.16Z"/>
        </g>
      </g>
    </g>
  </g>
</svg>