<?xml version="1.0" encoding="UTF-8"?><svg id="_레이어_1" xmlns="http://www.w3.org/2000/svg" viewBox="0 0 48 48"><defs><style>.cls-1{fill:#fff;}.cls-2{fill:#ade0f3;}</style></defs><path class="cls-1" d="M42,22.31s-.04,0-.07,0c.43-.99,.67-2.09,.67-3.24,0-4.51-3.66-8.17-8.17-8.17-1.59,0-3.08,.46-4.33,1.25-1.7-4.13-5.76-7.05-10.51-7.05-6.28,0-11.37,5.09-11.37,11.37,0,.47,.04,.94,.09,1.4-.03,0-.06,0-.09,0-4.21,0-7.62,3.41-7.62,7.62s3.41,7.62,7.62,7.62H42c2.98,0,5.4-2.42,5.4-5.4s-2.42-5.4-5.4-5.4Z"/><g><path class="cls-2" d="M7.05,42.88c-.24,0-.48-.05-.7-.15-.62-.29-.81-.91-.42-1.38l10.26-12.47c.39-.47,1.2-.61,1.82-.32,.62,.29,.81,.91,.42,1.38l-10.26,12.47c-.25,.3-.68,.47-1.12,.47Z"/><path class="cls-2" d="M28.32,42.88c-.24,0-.48-.05-.7-.15-.62-.29-.81-.91-.42-1.38l7.27-8.84c.39-.47,1.2-.61,1.82-.32,.62,.29,.81,.91,.42,1.38l-7.27,8.84c-.25,.3-.68,.47-1.12,.47Z"/><path class="cls-2" d="M17.31,42.88c-.24,0-.48-.05-.69-.15-.62-.29-.81-.91-.43-1.38l14.37-17.67c.38-.47,1.2-.62,1.82-.33,.62,.29,.81,.91,.43,1.38l-14.37,17.67c-.25,.31-.68,.48-1.13,.48Z"/></g></svg>