<?xml version="1.0" encoding="UTF-8"?><svg id="_레이어_1" xmlns="http://www.w3.org/2000/svg" viewBox="0 0 48 48"><defs><style>.cls-1{fill:none;stroke:#fff;stroke-linecap:round;stroke-linejoin:round;stroke-width:2.79px;}</style></defs><path class="cls-1" d="M19.65,6.6l4.35,2.18,4.35-2.18"/><path class="cls-1" d="M24,2.25v14.14l6.52,3.74"/><path class="cls-1" d="M36.89,11.53l.29,4.85,4.06,2.68"/><path class="cls-1" d="M42.84,13.12l-12.24,7.07,.02,7.52"/><path class="cls-1" d="M41.24,28.93l-4.06,2.68-.29,4.85"/><path class="cls-1" d="M42.84,34.88l-12.24-7.07-6.5,3.78"/><path class="cls-1" d="M28.35,41.4l-4.35-2.18-4.35,2.18"/><path class="cls-1" d="M24,45.75v-14.14l-6.52-3.74"/><path class="cls-1" d="M11.11,36.47l-.29-4.85-4.06-2.68"/><path class="cls-1" d="M5.16,34.88l12.24-7.07-.02-7.52"/><path class="cls-1" d="M6.76,19.07l4.06-2.68,.29-4.85"/><path class="cls-1" d="M5.16,13.12l12.24,7.07,6.5-3.78"/></svg>