<?xml version="1.0" encoding="UTF-8"?><svg id="_레이어_1" xmlns="http://www.w3.org/2000/svg" viewBox="0 0 48 48"><defs><style>.cls-1{fill:#fff;}.cls-2{fill:#dbdbdb;}</style></defs><path class="cls-2" d="M43.81,22.99s-.03,0-.05,0c.29-.68,.46-1.42,.46-2.21,0-3.08-2.5-5.58-5.58-5.58-1.09,0-2.1,.32-2.96,.86-1.16-2.82-3.93-4.81-7.17-4.81-4.28,0-7.76,3.47-7.76,7.76,0,.32,.03,.64,.06,.95-.02,0-.04,0-.06,0-2.87,0-5.2,2.33-5.2,5.2s2.33,5.2,5.2,5.2h23.06c2.04,0,3.69-1.65,3.69-3.69s-1.65-3.69-3.69-3.69Z"/><path class="cls-1" d="M34.57,27.85s-.04,0-.06,0c.35-.82,.55-1.72,.55-2.66,0-3.71-3.01-6.72-6.72-6.72-1.31,0-2.53,.38-3.57,1.03-1.4-3.4-4.74-5.8-8.65-5.8-5.17,0-9.35,4.19-9.35,9.35,0,.39,.03,.77,.08,1.15-.03,0-.05,0-.08,0-3.46,0-6.27,2.81-6.27,6.27s2.81,6.27,6.27,6.27h27.8c2.46,0,4.45-1.99,4.45-4.45s-1.99-4.45-4.45-4.45Z"/></svg>