<?xml version="1.0" encoding="UTF-8"?><svg id="_레이어_1" xmlns="http://www.w3.org/2000/svg" viewBox="0 0 48 48"><defs><style>.cls-1{fill:#dbdbdb;}.cls-2{fill:#faaf40;}</style></defs><path class="cls-1" d="M41.08,16.96s-.04,0-.06,0c.41-.94,.64-1.98,.64-3.07,0-4.28-3.47-7.75-7.75-7.75-1.51,0-2.92,.44-4.11,1.19-1.61-3.92-5.47-6.69-9.98-6.69-5.96,0-10.79,4.83-10.79,10.79,0,.45,.04,.89,.09,1.33-.03,0-.06,0-.09,0-3.99,0-7.23,3.24-7.23,7.23s3.24,7.23,7.23,7.23H41.08c2.83,0,5.13-2.3,5.13-5.13s-2.3-5.13-5.13-5.13Z"/><polygon class="cls-2" points="21.58 30.32 18.8 38.77 22.63 38.77 20.15 47.36 29.2 35.24 24.53 35.24 26.29 30.32 21.58 30.32"/></svg>