<?xml version="1.0" encoding="UTF-8"?><svg id="_레이어_1" xmlns="http://www.w3.org/2000/svg" viewBox="0 0 48 48"><defs><style>.cls-1{fill:#fff;}</style></defs><path class="cls-1" d="M40.66,16.54s-.04,0-.06,0c.4-.92,.62-1.93,.62-3,0-4.18-3.39-7.56-7.56-7.56-1.48,0-2.85,.43-4.01,1.16-1.57-3.83-5.34-6.52-9.73-6.52-5.81,0-10.52,4.71-10.52,10.52,0,.44,.04,.87,.09,1.29-.03,0-.06,0-.09,0-3.9,0-7.05,3.16-7.05,7.05s3.16,7.05,7.05,7.05h31.27c2.76,0,5-2.24,5-5s-2.24-5-5-5Z"/><circle class="cls-1" cx="14.32" cy="33.42" r="1.54"/><circle class="cls-1" cx="24" cy="33.42" r="1.54"/><circle class="cls-1" cx="24" cy="45.83" r="1.54"/><circle class="cls-1" cx="18.85" cy="39.5" r="1.54"/><path class="cls-1" d="M30.79,39.5c0,.85-.69,1.54-1.54,1.54s-1.54-.69-1.54-1.54,.69-1.54,1.54-1.54,1.54,.69,1.54,1.54Z"/><circle class="cls-1" cx="33.68" cy="33.42" r="1.54"/></svg>