<?xml version="1.0" encoding="UTF-8"?><svg id="_레이어_1" xmlns="http://www.w3.org/2000/svg" viewBox="0 0 48 48"><defs><style>.cls-1{fill:#ade0f3;}.cls-2{fill:#faaf40;}</style></defs><path class="cls-2" d="M33.98,37.02c-9,0-16.3-7.3-16.3-16.3S24.97,4.41,33.98,4.41c1.44,0,2.82,.2,4.15,.55C34.28,2.2,29.57,.55,24.47,.55,11.52,.55,1.02,11.05,1.02,24s10.5,23.45,23.45,23.45c10.69,0,19.69-7.16,22.51-16.94-2.98,3.94-7.69,6.5-13.01,6.5Z"/><polygon class="cls-1" points="38.36 10.33 41.24 15.43 46.98 16.59 43.02 20.9 43.69 26.72 38.36 24.29 33.04 26.72 33.7 20.9 29.74 16.59 35.48 15.43 38.36 10.33"/></svg>