<?xml version="1.0" encoding="UTF-8"?><svg id="_레이어_1" xmlns="http://www.w3.org/2000/svg" viewBox="0 0 48 48"><defs><style>.cls-1{fill:#faaf40;}</style></defs><circle class="cls-1" cx="24" cy="23.85" r="11.07" transform="translate(-4.78 41.64) rotate(-76.54)"/><path class="cls-1" d="M24,9.77c-.77,0-1.4-.62-1.4-1.4V2.31c0-.77,.62-1.4,1.4-1.4s1.4,.62,1.4,1.4v6.07c0,.77-.62,1.4-1.4,1.4Z"/><path class="cls-1" d="M24,47.09c-.77,0-1.4-.62-1.4-1.4v-6.07c0-.77,.62-1.4,1.4-1.4s1.4,.62,1.4,1.4v6.07c0,.77-.62,1.4-1.4,1.4Z"/><path class="cls-1" d="M45.69,25.4h-6.07c-.77,0-1.4-.62-1.4-1.4s.62-1.4,1.4-1.4h6.07c.77,0,1.4,.62,1.4,1.4s-.62,1.4-1.4,1.4Z"/><path class="cls-1" d="M2.31,25.4h6.07c.77,0,1.4-.62,1.4-1.4s-.62-1.4-1.4-1.4H2.31c-.77,0-1.4,.62-1.4,1.4s.62,1.4,1.4,1.4Z"/><path class="cls-1" d="M12.95,14.35c-.36,0-.71-.14-.99-.41l-4.29-4.29c-.55-.54-.55-1.43,0-1.97,.55-.55,1.43-.55,1.97,0l4.29,4.29c.55,.54,.55,1.43,0,1.97-.27,.27-.63,.41-.99,.41Z"/><path class="cls-1" d="M39.34,40.74c-.36,0-.71-.14-.99-.41l-4.29-4.29c-.55-.55-.55-1.43,0-1.97,.55-.55,1.43-.55,1.97,0l4.29,4.29c.55,.55,.55,1.43,0,1.97-.27,.27-.63,.41-.99,.41Z"/><path class="cls-1" d="M8.66,40.74c-.36,0-.71-.14-.99-.41-.55-.54-.55-1.43,0-1.97l4.29-4.29c.55-.55,1.43-.55,1.97,0,.55,.54,.55,1.43,0,1.97l-4.29,4.29c-.27,.27-.63,.41-.99,.41Z"/><path class="cls-1" d="M35.05,14.35c-.36,0-.71-.14-.99-.41-.55-.54-.55-1.43,0-1.97l4.29-4.29c.54-.55,1.43-.55,1.97,0,.55,.54,.55,1.43,0,1.97l-4.29,4.29c-.27,.27-.63,.41-.99,.41Z"/></svg>