<?xml version="1.0" encoding="UTF-8"?><svg id="_레이어_1" xmlns="http://www.w3.org/2000/svg" viewBox="0 0 48 48"><defs><style>.cls-1{fill:#fff;}.cls-2{fill:#ade0f3;}</style></defs><path class="cls-1" d="M36.38,23.21s-.04,0-.06,0c.37-.85,.58-1.8,.58-2.79,0-3.88-3.15-7.03-7.03-7.03-1.37,0-2.65,.4-3.73,1.08-1.46-3.56-4.96-6.07-9.05-6.07-5.4,0-9.78,4.38-9.78,9.78,0,.41,.03,.81,.08,1.2-.03,0-.05,0-.08,0-3.62,0-6.56,2.94-6.56,6.56s2.94,6.56,6.56,6.56h29.08c2.57,0,4.65-2.08,4.65-4.65s-2.08-4.65-4.65-4.65Z"/><g><path class="cls-2" d="M43.27,26h-13.22c-.63,0-1.13-.51-1.13-1.13s.51-1.13,1.13-1.13h13.22c.95,0,1.71-.77,1.71-1.71s-.77-1.71-1.71-1.71h-1.68c-.63,0-1.13-.51-1.13-1.13s.51-1.13,1.13-1.13h1.68c2.2,0,3.98,1.79,3.98,3.98s-1.79,3.98-3.98,3.98Z"/><path class="cls-2" d="M38.96,39.59c-2.8,0-5.08-2.28-5.08-5.08,0-1.91,1.56-3.47,3.47-3.47s3.47,1.56,3.47,3.47v.58c0,.63-.51,1.13-1.13,1.13s-1.13-.51-1.13-1.13v-.58c0-.66-.54-1.2-1.2-1.2s-1.2,.54-1.2,1.2c0,1.55,1.26,2.81,2.81,2.81s2.81-1.26,2.81-2.81v-1.16c0-2.12-1.72-3.84-3.84-3.84H20.12c-.63,0-1.13-.51-1.13-1.13s.51-1.13,1.13-1.13h17.81c3.37,0,6.11,2.74,6.11,6.11v1.16c0,2.8-2.28,5.08-5.08,5.08Z"/></g></svg>