<?xml version="1.0" encoding="UTF-8"?><svg id="_레이어_1" xmlns="http://www.w3.org/2000/svg" viewBox="0 0 48 48"><defs><style>.cls-1{fill:#fff;}.cls-2{fill:#ade0f3;}</style></defs><path class="cls-1" d="M41.08,18.26s-.04,0-.06,0c.41-.94,.64-1.98,.64-3.07,0-4.28-3.47-7.75-7.75-7.75-1.51,0-2.92,.44-4.11,1.19-1.61-3.92-5.47-6.69-9.98-6.69-5.96,0-10.79,4.83-10.79,10.79,0,.45,.04,.89,.09,1.33-.03,0-.06,0-.09,0-3.99,0-7.23,3.24-7.23,7.23s3.24,7.23,7.23,7.23H41.08c2.83,0,5.13-2.3,5.13-5.13s-2.3-5.13-5.13-5.13Z"/><g><path class="cls-2" d="M11.13,33.13c0-1.08,.88-1.95,1.95-1.94,1.08,0,1.95,.88,1.94,1.95,0,1.08-1.96,3.98-1.96,3.98,0,0-1.94-2.91-1.94-3.98Z"/><path class="cls-2" d="M22.28,33.13c0-1.08,.88-1.95,1.95-1.94,1.08,0,1.95,.88,1.94,1.95,0,1.08-1.96,3.98-1.96,3.98,0,0-1.94-2.91-1.94-3.98Z"/><path class="cls-2" d="M17.17,42.07c0-1.08,.88-1.95,1.95-1.94,1.08,0,1.95,.88,1.94,1.95,0,1.08-1.96,3.98-1.96,3.98,0,0-1.94-2.91-1.94-3.98Z"/><path class="cls-2" d="M28.32,42.07c0-1.08,.88-1.95,1.95-1.94,1.08,0,1.95,.88,1.94,1.95,0,1.08-1.96,3.98-1.96,3.98,0,0-1.94-2.91-1.94-3.98Z"/><path class="cls-2" d="M33.43,33.13c0-1.08,.88-1.95,1.95-1.94,1.08,0,1.95,.88,1.94,1.95,0,1.08-1.96,3.98-1.96,3.98,0,0-1.94-2.91-1.94-3.98Z"/></g></svg>