<?xml version="1.0" encoding="UTF-8"?><svg id="_레이어_1" xmlns="http://www.w3.org/2000/svg" viewBox="0 0 48 48"><defs><style>.cls-1{fill:#dbdbdb;}.cls-2{fill:#ade0f3;}.cls-3{fill:#faaf40;}</style></defs><path class="cls-1" d="M39.81,16.95s-.04,0-.06,0c.38-.87,.59-1.83,.59-2.84,0-3.96-3.21-7.18-7.18-7.18-1.4,0-2.7,.41-3.81,1.1-1.49-3.63-5.06-6.19-9.24-6.19-5.52,0-9.99,4.47-9.99,9.99,0,.42,.03,.83,.08,1.23-.03,0-.06,0-.08,0-3.7,0-6.7,3-6.7,6.7s3,6.7,6.7,6.7h29.68c2.62,0,4.75-2.13,4.75-4.75s-2.13-4.75-4.75-4.75Z"/><path class="cls-2" d="M30.33,36.98l-2.19,4.65c-.48,1.02-.5,2.23,.04,3.22,.38,.7,1.03,1.3,2.15,1.3s1.77-.6,2.15-1.3c.54-.99,.52-2.2,.04-3.22l-2.19-4.65Z"/><polygon class="cls-3" points="30.33 32.54 21.78 32.54 26.11 24.83 21.78 24.83 15.64 35.89 22.26 35.89 19.61 45.9 30.33 32.54"/></svg>