<?xml version="1.0" encoding="UTF-8"?><svg id="_레이어_1" xmlns="http://www.w3.org/2000/svg" viewBox="0 0 48 48"><defs><style>.cls-1{fill:#fff;}</style></defs><path class="cls-1" d="M37.61,26.83s-.04,0-.06,0c.38-.88,.59-1.85,.59-2.87,0-4-3.24-7.25-7.25-7.25-1.41,0-2.73,.41-3.85,1.11-1.51-3.67-5.11-6.25-9.32-6.25-5.57,0-10.08,4.51-10.08,10.08,0,.42,.03,.83,.08,1.24-.03,0-.06,0-.08,0-3.73,0-6.76,3.03-6.76,6.76s3.03,6.76,6.76,6.76h29.96c2.65,0,4.79-2.15,4.79-4.79s-2.15-4.79-4.79-4.79Z"/><path class="cls-1" d="M33.88,13.24h-15.32c-.46,0-.83-.37-.83-.83h0c0-.46,.37-.83,.83-.83h15.32c.46,0,.83,.37,.83,.83h0c0,.46-.37,.83-.83,.83Z"/><path class="cls-1" d="M46.28,13.24h-8.89c-.46,0-.83-.37-.83-.83h0c0-.46,.37-.83,.83-.83h8.89c.46,0,.83,.37,.83,.83h0c0,.46-.37,.83-.83,.83Z"/><path class="cls-1" d="M40.17,18.38h-9.17c-.46,0-.83-.37-.83-.83h0c0-.46,.37-.83,.83-.83h9.17c.46,0,.83,.37,.83,.83h0c0,.46-.37,.83-.83,.83Z"/><path class="cls-1" d="M46.24,18.38h-2.43c-.46,0-.83-.37-.83-.83h0c0-.46,.37-.83,.83-.83h2.43c.46,0,.83,.37,.83,.83h0c0,.46-.37,.83-.83,.83Z"/><path class="cls-1" d="M46.24,28.44h-15.23c-.46,0-.83-.37-.83-.83h0c0-.46,.37-.83,.83-.83h15.23c.46,0,.83,.37,.83,.83h0c0,.46-.37,.83-.83,.83Z"/><path class="cls-1" d="M46.24,36.42h-15.23c-.46,0-.83-.37-.83-.83h0c0-.46,.37-.83,.83-.83h15.23c.46,0,.83,.37,.83,.83h0c0,.46-.37,.83-.83,.83Z"/></svg>