<?xml version="1.0" encoding="UTF-8"?><svg id="_레이어_1" xmlns="http://www.w3.org/2000/svg" viewBox="0 0 48 48"><defs><style>.cls-1{fill:#fff;}.cls-2{fill:#faaf40;}</style></defs><g><circle class="cls-2" cx="15.3" cy="22.03" r="6.51" transform="translate(-9.68 31.79) rotate(-76.54)"/><path class="cls-2" d="M15.3,13.75c-.45,0-.82-.37-.82-.82v-3.57c0-.45,.37-.82,.82-.82s.82,.37,.82,.82v3.57c0,.45-.37,.82-.82,.82Z"/><path class="cls-2" d="M15.3,35.7c-.45,0-.82-.37-.82-.82v-3.57c0-.45,.37-.82,.82-.82s.82,.37,.82,.82v3.57c0,.45-.37,.82-.82,.82Z"/><path class="cls-2" d="M28.06,22.94h-3.57c-.45,0-.82-.37-.82-.82s.37-.82,.82-.82h3.57c.45,0,.82,.37,.82,.82s-.37,.82-.82,.82Z"/><path class="cls-2" d="M2.54,22.94h3.57c.45,0,.82-.37,.82-.82s-.37-.82-.82-.82H2.54c-.45,0-.82,.37-.82,.82s.37,.82,.82,.82Z"/><path class="cls-2" d="M8.81,16.45c-.21,0-.42-.08-.58-.24l-2.52-2.52c-.32-.32-.32-.84,0-1.16,.32-.32,.84-.32,1.16,0l2.52,2.52c.32,.32,.32,.84,0,1.16-.16,.16-.37,.24-.58,.24Z"/><path class="cls-2" d="M24.32,31.96c-.21,0-.42-.08-.58-.24l-2.52-2.52c-.32-.32-.32-.84,0-1.16,.32-.32,.84-.32,1.16,0l2.52,2.52c.32,.32,.32,.84,0,1.16-.16,.16-.37,.24-.58,.24Z"/><path class="cls-2" d="M6.28,31.96c-.21,0-.42-.08-.58-.24-.32-.32-.32-.84,0-1.16l2.52-2.52c.32-.32,.84-.32,1.16,0,.32,.32,.32,.84,0,1.16l-2.52,2.52c-.16,.16-.37,.24-.58,.24Z"/><path class="cls-2" d="M21.8,16.45c-.21,0-.42-.08-.58-.24-.32-.32-.32-.84,0-1.16l2.52-2.52c.32-.32,.84-.32,1.16,0,.32,.32,.32,.84,0,1.16l-2.52,2.52c-.16,.16-.37,.24-.58,.24Z"/></g><path class="cls-1" d="M43.04,32.23s-.04,0-.06,0c.36-.83,.56-1.74,.56-2.7,0-3.76-3.05-6.81-6.81-6.81-1.33,0-2.56,.39-3.61,1.04-1.42-3.44-4.8-5.87-8.76-5.87-5.23,0-9.47,4.24-9.47,9.47,0,.4,.03,.78,.08,1.17-.03,0-.05,0-.08,0-3.51,0-6.35,2.84-6.35,6.35s2.84,6.35,6.35,6.35h28.15c2.49,0,4.5-2.02,4.5-4.5s-2.02-4.5-4.5-4.5Z"/></svg>