<?xml version="1.0" encoding="UTF-8"?><svg id="_레이어_1" xmlns="http://www.w3.org/2000/svg" viewBox="0 0 48 48"><defs><style>.cls-1{fill:#fff;}.cls-2{fill:#faaf40;}</style></defs><path class="cls-2" d="M37.22,21.37c1.32,0,2.56-.34,3.64-.93-1.79,1.93-4.36,3.14-7.2,3.14-5.42,0-9.82-4.4-9.82-9.82S28.25,3.93,33.67,3.93c2.84,0,5.4,1.21,7.2,3.14-1.08-.59-2.32-.93-3.64-.93-4.21,0-7.61,3.41-7.61,7.61s3.41,7.61,7.61,7.61Z"/><path class="cls-1" d="M42.14,33.18s-.05,0-.07,0c.43-1,.67-2.1,.67-3.26,0-4.55-3.69-8.23-8.23-8.23-1.61,0-3.1,.47-4.37,1.26-1.71-4.17-5.81-7.1-10.59-7.1-6.33,0-11.45,5.13-11.45,11.45,0,.48,.04,.95,.1,1.41-.03,0-.06,0-.1,0-4.24,0-7.68,3.44-7.68,7.68s3.44,7.68,7.68,7.68H42.14c3.01,0,5.45-2.44,5.45-5.45s-2.44-5.45-5.45-5.45Z"/></svg>